<svg width="69" height="75" viewBox="0 0 69 75" fill="none" xmlns="http://www.w3.org/2000/svg">
<path d="M39.5851 65.3189C40.268 65.3189 40.8204 64.7665 40.8204 64.0836V58.4065C40.8204 57.7236 40.268 57.1712 39.5851 57.1712H27.9345C27.2516 57.1712 26.6992 57.7236 26.6992 58.4065V64.0836C26.6992 64.7665 27.2516 65.3189 27.9345 65.3189H39.5851ZM29.1698 59.6418H38.3498V62.8483H29.1698V59.6418Z" fill="#0F1116"/>
<path d="M57.6203 65.3189C58.3032 65.3189 58.8555 64.7665 58.8555 64.0836V58.4065C58.8555 57.7236 58.3032 57.1712 57.6203 57.1712H45.9697C45.2867 57.1712 44.7344 57.7236 44.7344 58.4065V64.0836C44.7344 64.7665 45.2867 65.3189 45.9697 65.3189H57.6203ZM47.2067 59.6418H56.3867V62.8483H47.2067V59.6418Z" fill="#0F1116"/>
<path d="M18.2865 16.9341C19.633 17.8518 21.2283 18.3494 22.8765 18.3494C23.5612 18.3494 24.2318 18.2647 24.8848 18.0988C26.7977 23.4 31.8412 26.9982 37.5783 26.9982C45.0218 26.9982 51.0765 20.9435 51.0765 13.5C51.0765 6.05647 45.0236 0 37.5801 0C33.9907 0 30.5936 1.41176 28.0754 3.91412C26.623 2.71059 24.7895 2.04 22.8783 2.04C20.226 2.04 17.7765 3.31765 16.2554 5.43706C15.6801 5.27294 15.0836 5.19 14.473 5.19C10.8942 5.19 7.98242 8.10177 7.98242 11.6806C7.98242 15.2594 10.8942 18.1712 14.473 18.1712C15.8654 18.1712 17.1871 17.7388 18.2865 16.9341ZM10.453 11.6806C10.453 9.46412 12.2565 7.66059 14.473 7.66059C15.0871 7.66059 15.6783 7.79647 16.2271 8.06294C16.8254 8.35412 17.5454 8.11941 17.8577 7.53176C18.8495 5.66824 20.773 4.51235 22.8783 4.51235C24.5354 4.51235 26.106 5.23588 27.1895 6.49588C27.4242 6.76941 27.7665 6.92647 28.1265 6.92647C28.1301 6.92647 28.1336 6.92647 28.1389 6.92647C28.5024 6.92294 28.8465 6.75882 29.0795 6.47824C31.1848 3.93353 34.2836 2.47235 37.5818 2.47235C43.663 2.47235 48.6095 7.41882 48.6095 13.5C48.6095 19.5812 43.663 24.5276 37.5818 24.5276C33.696 24.5276 30.2018 22.5071 28.2289 19.35C28.2236 19.3394 28.2183 19.3288 28.2112 19.3182C27.8742 18.7765 27.5865 18.21 27.3501 17.6224C27.3483 17.6188 27.3465 17.6153 27.3448 17.6118C27.313 17.5341 27.2848 17.4547 27.2548 17.3771C27.2318 17.3188 27.2107 17.2588 27.1895 17.2006C27.1665 17.1353 27.1436 17.07 27.1224 17.0047C27.096 16.9271 27.0712 16.8494 27.0483 16.7718C27.0307 16.7171 27.0148 16.6606 26.9971 16.6041C26.9689 16.5071 26.9424 16.4082 26.916 16.3094C26.6777 15.3988 26.5524 14.4565 26.5524 13.5018C26.5524 12.5594 26.6707 11.6224 26.9054 10.7188C27.0765 10.0588 26.6812 9.38471 26.0195 9.21176C25.3595 9.04059 24.6854 9.43588 24.5124 10.0976C24.2248 11.2041 24.0801 12.3494 24.0801 13.5018C24.0801 14.2447 24.1418 14.9824 24.2618 15.7094C23.8118 15.8224 23.3477 15.8824 22.8748 15.8824C21.5971 15.8824 20.3654 15.4535 19.3683 14.6682C19.3012 14.6153 19.2342 14.5606 19.1689 14.5041C19.1389 14.4776 19.1089 14.4529 19.0789 14.4265C18.3642 13.7859 17.8242 12.9794 17.5065 12.0724C17.2824 11.4282 16.5765 11.0876 15.9324 11.3135C15.2883 11.5376 14.9477 12.2435 15.1736 12.8876C15.4665 13.7259 15.8954 14.5006 16.4336 15.1941C15.8407 15.5276 15.1701 15.7059 14.4695 15.7059C12.2565 15.7006 10.453 13.8971 10.453 11.6806Z" fill="#0F1116"/>
<path d="M1.76939 58.2653L0.00821009 73.6235C-0.0323781 73.9729 0.0787976 74.3241 0.313503 74.587C0.548209 74.85 0.883504 75 1.23468 75H20.8388H67.1112C67.7941 75 68.3464 74.4476 68.3464 73.7647V41.3735C68.3464 40.6906 67.7941 40.1382 67.1112 40.1382H59.6923C59.0094 40.1382 58.457 40.6906 58.457 41.3735V46.3535L54.3559 40.6517C54.1229 40.3288 53.7506 40.1382 53.3535 40.1382H45.9717C45.2888 40.1382 44.7364 40.6906 44.7364 41.3735V46.3535L40.6353 40.6517C40.4023 40.3288 40.03 40.1382 39.6329 40.1382H32.2512C31.5682 40.1382 31.0159 40.6906 31.0159 41.3735V46.3517L26.9164 40.6517C26.6835 40.3288 26.3111 40.1382 25.9141 40.1382H22.4059C21.7229 40.1382 21.1706 40.6906 21.1706 41.3735C21.1706 42.0564 21.7229 42.6088 22.4059 42.6088H25.2823L31.2506 50.9064C31.5629 51.3423 32.1223 51.5259 32.6323 51.3617C33.1423 51.1976 33.4882 50.7229 33.4882 50.1864V42.6088H39.0011L44.9711 50.9082C45.2835 51.3441 45.8429 51.5276 46.3529 51.3617C46.8629 51.1976 47.2088 50.7229 47.2088 50.1864V42.6088H52.7217L58.6917 50.9082C59.0041 51.3441 59.5635 51.5276 60.0735 51.3617C60.5835 51.1976 60.9294 50.7229 60.9294 50.1864V42.6088H65.8776V72.5294H21.94L18.3506 41.2323C18.3506 41.2288 18.3488 41.227 18.3488 41.2235L16.9035 28.6323C16.9035 28.6253 16.9017 28.6164 16.9123 28.6059C16.9229 28.5953 16.9317 28.5953 16.937 28.5953C18.3188 28.5953 19.4429 27.4711 19.4429 26.0911V21.1517C19.4429 20.4688 18.8906 19.9164 18.2076 19.9164H3.86586C3.18292 19.9164 2.63056 20.4688 2.63056 21.1517V26.0911C2.63056 27.4729 3.75468 28.5953 5.13645 28.5953C5.1435 28.5953 5.15233 28.5953 5.16292 28.6059C5.1735 28.6164 5.17174 28.6253 5.17174 28.6323L2.91821 48.2541C2.84056 48.9317 3.32762 49.5441 4.00527 49.6217C4.68292 49.6994 5.29527 49.2123 5.37292 48.5347L7.62468 28.9129C7.70586 28.2035 7.47998 27.4923 7.00527 26.9594C6.53056 26.4264 5.84939 26.1211 5.13645 26.1211C5.11703 26.1211 5.10292 26.1053 5.10292 26.0876V22.3835H16.9741V26.0876C16.9741 26.107 16.9582 26.1211 16.9388 26.1211C16.2259 26.1211 15.5447 26.4264 15.07 26.9594C14.5953 27.4923 14.3694 28.2035 14.4506 28.9129L19.4553 72.5276H2.61997L4.22409 58.5441C4.30174 57.8664 3.81468 57.2541 3.13703 57.1764C2.45939 57.0988 1.84703 57.5876 1.76939 58.2653Z" fill="#0F1116"/>
<path d="M2.54368 54.0865C2.5878 54.1536 2.64074 54.2171 2.69721 54.2736C2.75369 54.3318 2.81721 54.383 2.88427 54.4271C2.95133 54.473 3.02369 54.51 3.0978 54.5418C3.17369 54.5718 3.25133 54.5965 3.32898 54.6124C3.40839 54.6283 3.49133 54.6353 3.57074 54.6353C3.89545 54.6353 4.21486 54.503 4.44427 54.2736C4.50074 54.2171 4.55369 54.1536 4.5978 54.0865C4.64192 54.0194 4.68074 53.9471 4.71074 53.873C4.74251 53.7989 4.76545 53.7212 4.78133 53.6418C4.79721 53.5624 4.80604 53.4812 4.80604 53.4C4.80604 53.3206 4.79721 53.2394 4.78133 53.1583C4.76545 53.0806 4.74251 53.003 4.71074 52.9288C4.68074 52.853 4.64192 52.7824 4.5978 52.7153C4.55369 52.6465 4.50074 52.5847 4.44427 52.5265C4.21486 52.2971 3.89545 52.1647 3.57074 52.1647C3.24604 52.1647 2.92663 52.2971 2.69721 52.5265C2.64074 52.5847 2.5878 52.6465 2.54368 52.7153C2.49957 52.7824 2.46074 52.853 2.43074 52.9288C2.39898 53.003 2.37604 53.0806 2.36016 53.1583C2.34427 53.2394 2.33545 53.3206 2.33545 53.4C2.33545 53.4812 2.34427 53.5624 2.36016 53.6418C2.37604 53.7212 2.39898 53.7989 2.43074 53.873C2.46074 53.9471 2.49957 54.0194 2.54368 54.0865Z" fill="#0F1116"/>
</svg>
