<svg width="61" height="75" viewBox="0 0 61 75" fill="none" xmlns="http://www.w3.org/2000/svg">
<path d="M60.8202 49.5964C60.5285 49.0717 59.8665 48.8825 59.3416 49.1742L52.9121 52.748C51.446 53.5626 49.8808 54.1915 48.2598 54.617L16.2964 63.0068C15.6488 63.1762 14.9927 63.1834 14.3471 63.0282C13.0705 62.7211 12.0235 61.8074 11.5453 60.5817C11.4612 60.3676 11.274 59.3912 11.274 59.1338C11.274 57.6926 12.0516 56.3575 13.303 55.6496C13.4244 55.5808 28.3683 48.9324 28.3683 48.9324C30.4254 48.0164 31.7061 45.8931 31.5553 43.6492C31.3852 41.1011 29.4415 39.0524 26.9848 38.6821L33.5147 24.5013L57.5205 34.1044C57.653 34.1573 57.7895 34.1825 57.924 34.1825C58.3554 34.1825 58.7638 33.9239 58.9338 33.4987C59.1568 32.9412 58.8856 32.3084 58.3281 32.0855L34.4254 22.5237L42.4131 5.17648C42.8209 4.29079 42.8593 3.29922 42.5211 2.38442C42.1831 1.46979 41.509 0.741499 40.6231 0.334031C38.7957 -0.507168 36.6237 0.295559 35.782 2.12315L26.7212 21.8007C25.5456 22.0466 24.4132 22.4524 23.348 23.0126L9.85906 30.1027C6.13715 32.0589 3.45515 35.5302 2.50104 39.6265L0.126986 49.8144C-0.563502 52.7752 3.12262 59.6328 5.89394 62.5397C6.42318 63.0949 6.91997 63.5097 7.38933 63.7879L5.68301 67.4933C5.27487 68.3788 5.2364 69.3705 5.57496 70.2852C5.78672 70.8576 6.13029 71.3569 6.57489 71.7504L5.83657 73.4875C5.60172 74.0402 5.85931 74.6785 6.41181 74.9133C6.55064 74.9724 6.69466 75.0003 6.83667 75.0003C7.2597 75.0003 7.66198 74.7519 7.83778 74.3381L8.55871 72.642C8.7029 72.6592 8.84842 72.6688 8.99579 72.6688C10.4176 72.6688 11.7203 71.8356 12.3144 70.5458L13.7546 67.4187C14.5177 69.1196 16.1976 70.1358 17.9583 70.1358C18.5711 70.1358 19.1939 70.0129 19.7907 69.7528C21.0792 69.1904 21.9801 68.104 22.3549 66.8515C22.4702 66.908 22.5878 66.9612 22.7085 67.0087C23.2533 67.2225 23.8221 67.3292 24.3901 67.3292C25.0149 67.3292 25.6389 67.2002 26.2287 66.9426C27.3548 66.4512 28.2223 65.5504 28.6712 64.4066C28.7189 64.285 28.7602 64.1621 28.7972 64.0383C29.4271 64.3481 30.1241 64.5164 30.8352 64.5164C31.4484 64.5164 32.0718 64.3929 32.6689 64.1323C34.259 63.4375 35.2952 61.9155 35.4132 60.2375L48.8118 56.7206C50.6086 56.2489 52.3434 55.5519 53.9684 54.649L60.3981 51.0751C60.923 50.7832 61.112 50.1213 60.8202 49.5964ZM12.2989 51.7893C12.0222 50.5211 12.2288 49.2032 12.8808 48.078L15.4868 43.5774C15.9753 42.7337 16.7059 42.0795 17.566 41.6841L12.4961 52.6946L12.2989 51.7893ZM32.6522 14.1196L35.2937 15.4385L19.0612 50.6902L14.9772 52.5049L32.6522 14.1196ZM26.1854 40.7964C27.8678 40.7964 29.2734 42.1131 29.3858 43.7945C29.4758 45.1328 28.7115 46.3992 27.4848 46.9455L22.0724 49.3504L26.0069 40.8057C26.0966 40.8004 26.1632 40.7969 26.1854 40.7964ZM37.7573 3.03276C38.0973 2.29393 38.9757 1.96976 39.7143 2.30932C40.0725 2.47408 40.3449 2.76847 40.4816 3.1383C40.6183 3.50814 40.6029 3.90892 40.4378 4.26704L36.2035 13.4624L33.5622 12.1434L37.7573 3.03276ZM5.85614 59.0127C3.60853 55.7643 1.92095 51.6967 2.24495 50.3077L4.61918 40.1196C5.42993 36.6391 7.70882 33.6894 10.8712 32.0273L24.3603 24.9372C24.7367 24.7393 25.1234 24.5649 25.5185 24.4135L18.7423 39.1299C16.5975 39.3721 14.6925 40.6095 13.6052 42.4878L10.9993 46.988C10.0748 48.5838 9.78195 50.4535 10.1745 52.2527L10.757 54.9271C9.71003 56.0545 9.09983 57.5519 9.09983 59.134C9.09983 59.4081 9.11957 59.6823 9.1557 59.9531L8.3073 61.7951C7.81503 61.4383 6.97835 60.6347 5.85614 59.0127ZM10.3393 69.6357C10.0989 70.157 9.57169 70.4939 8.99562 70.4939C8.78135 70.4939 8.57527 70.4489 8.38241 70.3599C8.02395 70.1947 7.75113 69.8999 7.61431 69.5303C7.47765 69.161 7.49304 68.7605 7.65796 68.4027L10.2654 62.7408C10.8578 63.5631 11.6447 64.2278 12.5558 64.6761L12.5887 64.7516L10.3393 69.6357ZM18.9214 67.7592C17.6946 68.2935 16.2618 67.7313 15.7269 66.5062L15.2047 65.3097C15.2286 65.3101 15.2525 65.3117 15.2764 65.3117C15.8047 65.3117 16.3336 65.2445 16.8474 65.11L20.0453 64.2707L20.1736 64.5651C20.708 65.7918 20.1458 67.2248 18.9214 67.7592ZM26.6469 63.6119C26.4101 64.2151 25.9527 64.6902 25.3588 64.9494C24.7653 65.2085 24.1061 65.2211 23.5031 64.9842C22.9054 64.7496 22.4349 64.2981 22.1746 63.712L26.8031 62.4971C26.8389 62.8714 26.7884 63.2516 26.6469 63.6119ZM31.7986 62.1393C31.205 62.3986 30.5458 62.4108 29.9426 62.1741C29.723 62.088 29.5211 61.9719 29.3398 61.8314L33.0624 60.8542C32.8268 61.4145 32.3843 61.8834 31.7986 62.1393Z" fill="#0F1116"/>
</svg>
