<svg width="67" height="75" viewBox="0 0 67 75" fill="none" xmlns="http://www.w3.org/2000/svg">
<path d="M33.4581 74.5039C31.6972 74.5039 29.9371 74.0503 28.3664 73.1431L5.0999 59.7102C1.95923 57.8974 0.00732422 54.518 0.00732422 50.8908V24.0251C0.00732422 20.3987 1.95841 17.0193 5.0999 15.2049L28.3664 1.77207C31.507 -0.0415354 35.4109 -0.0415354 38.5507 1.77207L61.8172 15.2049C64.9578 17.0185 66.9089 20.3979 66.9089 24.0251V50.8916C66.9089 54.5188 64.9578 57.8982 61.8172 59.711L38.5499 73.1439C36.98 74.0503 35.219 74.5039 33.4581 74.5039ZM33.4581 2.05856C31.9821 2.05856 30.506 2.43889 29.1896 3.19875L5.92314 16.6316C3.28959 18.1513 1.65381 20.9849 1.65381 24.0251V50.8916C1.65381 53.9327 3.28959 56.7655 5.92314 58.2843L29.1896 71.7172C31.8232 73.2385 35.0947 73.2385 37.7266 71.7172L60.9931 58.2843C63.6267 56.7646 65.2616 53.9319 65.2616 50.8916V24.0251C65.2616 20.9849 63.6258 18.1521 60.9931 16.6316L37.7266 3.19875C36.4103 2.43889 34.9342 2.05856 33.4581 2.05856Z" fill="#0F1116"/>
<path d="M22.2233 48.6318C21.9443 48.6318 21.6767 48.4886 21.5236 48.2425L10.1982 29.9953V47.8086C10.1982 48.2639 9.82943 48.6318 9.375 48.6318C8.92057 48.6318 8.55176 48.2639 8.55176 47.8086V27.1074C8.55176 26.7394 8.79544 26.4167 9.14943 26.3154C9.5026 26.2141 9.88047 26.3607 10.0748 26.6735L21.4009 44.9207V27.1074C21.4009 26.6529 21.7697 26.2841 22.2242 26.2841C22.6786 26.2841 23.0474 26.6529 23.0474 27.1074V47.8086C23.0474 48.1758 22.8037 48.4993 22.4497 48.6006C22.3748 48.6211 22.2991 48.6318 22.2233 48.6318Z" fill="#0F1116"/>
<path d="M30.251 48.6319C29.7965 48.6319 29.4277 48.2639 29.4277 47.8086V27.1074C29.4277 26.6529 29.7965 26.2841 30.251 26.2841H39.4285C39.8837 26.2841 40.2517 26.6529 40.2517 27.1074C40.2517 27.5618 39.8837 27.9306 39.4285 27.9306H31.0742V47.8086C31.0742 48.263 30.7054 48.6319 30.251 48.6319Z" fill="#0F1116"/>
<path d="M37.5474 38.2812H30.251C29.7965 38.2812 29.4277 37.9124 29.4277 37.4579C29.4277 37.0035 29.7965 36.6347 30.251 36.6347H37.5474C38.0026 36.6347 38.3706 37.0035 38.3706 37.4579C38.3706 37.9124 38.0026 38.2812 37.5474 38.2812Z" fill="#0F1116"/>
<path d="M57.5415 27.9306H45.7773C45.3221 27.9306 44.9541 27.5618 44.9541 27.1074C44.9541 26.6529 45.3221 26.2841 45.7773 26.2841H57.5423C57.9975 26.2841 58.3655 26.6529 58.3655 27.1074C58.3647 27.5618 57.9967 27.9306 57.5415 27.9306Z" fill="#0F1116"/>
<path d="M51.6592 48.6319C51.2039 48.6319 50.8359 48.2639 50.8359 47.8086V27.1074C50.8359 26.6529 51.2039 26.2841 51.6592 26.2841C52.1144 26.2841 52.4824 26.6529 52.4824 27.1074V47.8086C52.4824 48.263 52.1144 48.6319 51.6592 48.6319Z" fill="#0F1116"/>
</svg>
