<svg width="75" height="75" viewBox="0 0 75 75" fill="none" xmlns="http://www.w3.org/2000/svg">
<path d="M75 10V0H0V10H2.5V60H1.25C0.55875 60 0 60.5588 0 61.25C0 61.9412 0.55875 62.5 1.25 62.5H2.5H36.25V65C36.25 65.0587 36.2762 65.11 36.2838 65.1675C34.115 65.7137 32.5 67.6637 32.5 70C32.5 72.7575 34.7425 75 37.5 75C40.2575 75 42.5 72.7575 42.5 70C42.5 67.6637 40.885 65.7137 38.7162 65.1675C38.7238 65.11 38.75 65.0587 38.75 65V62.5H72.5H73.75C74.4413 62.5 75 61.9412 75 61.25C75 60.5588 74.4413 60 73.75 60H72.5V10H75ZM40 70C40 71.3788 38.8787 72.5 37.5 72.5C36.1213 72.5 35 71.3788 35 70C35 68.6212 36.1213 67.5 37.5 67.5C38.8787 67.5 40 68.6212 40 70ZM2.5 2.5H72.5V7.5H2.5V2.5ZM70 60H5V10H70V60Z" fill="#0F1116"/>
<path d="M31.25 50V47.5V33.75H21.25V47.5V50V56.25H31.25V50ZM23.75 36.25H28.75V47.5H23.75V36.25ZM28.75 53.75H23.75V50H28.75V53.75Z" fill="#0F1116"/>
<path d="M42.5 50V47.5V26.25H32.5V47.5V50V56.25H42.5V50ZM35 28.75H40V47.5H35V28.75ZM40 53.75H35V50H40V53.75Z" fill="#0F1116"/>
<path d="M53.75 50V47.5V35H43.75V47.5V50V56.25H53.75V50ZM46.25 37.5H51.25V47.5H46.25V37.5ZM51.25 53.75H46.25V50H51.25V53.75Z" fill="#0F1116"/>
<path d="M65 50V47.5V18.75H55V47.5V50V56.25H65V50ZM57.5 21.25H62.5V47.5H57.5V21.25ZM62.5 53.75H57.5V50H62.5V53.75Z" fill="#0F1116"/>
<path d="M10 47.5V50V56.25H20V50V47.5V41.25H10V47.5ZM17.5 53.75H12.5V50H17.5V53.75ZM12.5 43.75H17.5V47.5H12.5V43.75Z" fill="#0F1116"/>
<path d="M9.99982 31.25C10.3198 31.25 10.6398 31.1275 10.8836 30.8838L17.4998 24.2675V27.5C17.4998 28.1912 18.0586 28.75 18.7498 28.75C19.4411 28.75 19.9998 28.1912 19.9998 27.5V21.25C19.9998 21.0875 19.9673 20.925 19.9036 20.7725C19.7773 20.4663 19.5336 20.2225 19.2273 20.0962C19.0748 20.0325 18.9123 20 18.7498 20H12.4998C11.8086 20 11.2498 20.5588 11.2498 21.25C11.2498 21.9412 11.8086 22.5 12.4998 22.5H15.7323L9.11607 29.1162C8.62732 29.605 8.62732 30.395 9.11607 30.8838C9.35982 31.1275 9.67982 31.25 9.99982 31.25Z" fill="#0F1116"/>
</svg>
