<svg width="75" height="62" viewBox="0 0 75 62" fill="none" xmlns="http://www.w3.org/2000/svg">
<path d="M12.3231 39.9075C11.2628 40.9963 10.3061 42.1814 9.46556 43.4475C9.29938 43.6931 9.23615 43.994 9.28944 44.2857C9.34273 44.5774 9.50829 44.8365 9.75056 45.0075C9.93685 45.1261 10.1523 45.191 10.3731 45.195C10.5588 45.1957 10.7417 45.1502 10.9054 45.0624C11.0691 44.9747 11.2084 44.8476 11.3106 44.6925C12.0762 43.5435 12.9448 42.4666 13.9056 41.475C14.1023 41.2591 14.2073 40.9752 14.1984 40.6832C14.1896 40.3913 14.0676 40.1142 13.8581 39.9106C13.6487 39.7071 13.3683 39.5929 13.0762 39.5923C12.7842 39.5917 12.5033 39.7048 12.2931 39.9075H12.3231Z" fill="#0F1116"/>
<path d="M50.7979 26.985C49.5979 27.2175 48.2479 27.4575 46.5454 27.735C46.2471 27.7589 45.9704 27.9003 45.7763 28.1282C45.5822 28.356 45.4866 28.6516 45.5104 28.95C45.5343 29.2484 45.6757 29.525 45.9036 29.7191C46.1314 29.9132 46.4271 30.0089 46.7254 29.985H46.9054C48.6304 29.7075 50.0029 29.46 51.2329 29.235C51.5313 29.1773 51.7945 29.0035 51.9647 28.7517C52.1349 28.4999 52.1981 28.1909 52.1404 27.8925C52.0827 27.5941 51.9089 27.3309 51.6571 27.1607C51.4054 26.9905 51.0963 26.9273 50.7979 26.985Z" fill="#0F1116"/>
<path d="M30.7502 30.5925C29.2127 30.9675 27.8177 31.3425 26.4827 31.785C26.2262 31.8662 26.0073 32.0367 25.8657 32.2655C25.7241 32.4942 25.6692 32.7662 25.7109 33.032C25.7526 33.2978 25.8882 33.5398 26.0931 33.7142C26.298 33.8886 26.5586 33.9838 26.8277 33.9825C26.9423 33.9834 27.0562 33.9657 27.1652 33.93C28.4552 33.5175 29.7976 33.18 31.2826 32.7825C31.5731 32.7119 31.8235 32.5288 31.9789 32.2735C32.1344 32.0182 32.182 31.7116 32.1114 31.4212C32.0408 31.1308 31.8577 30.8804 31.6024 30.7249C31.3471 30.5695 31.0406 30.5219 30.7502 30.5925Z" fill="#0F1116"/>
<path d="M13.5003 46.5225C13.3963 46.4173 13.2725 46.3338 13.1361 46.2767C12.9996 46.2197 12.8532 46.1904 12.7053 46.1904C12.5574 46.1904 12.4109 46.2197 12.2745 46.2767C12.138 46.3338 12.0142 46.4173 11.9103 46.5225L9.39775 49.035L9.15775 48.795L6.90775 46.545C6.69989 46.3252 6.41323 46.197 6.11082 46.1886C5.80842 46.1801 5.51505 46.2921 5.29525 46.5C5.07546 46.7079 4.94723 46.9945 4.93879 47.2969C4.93035 47.5993 5.04239 47.8927 5.25025 48.1125L7.76275 50.625L5.25025 53.1375C5.14481 53.2421 5.06112 53.3665 5.004 53.5036C4.94689 53.6407 4.91748 53.7877 4.91748 53.9363C4.91748 54.0848 4.94689 54.2318 5.004 54.3689C5.06112 54.506 5.14481 54.6304 5.25025 54.735C5.35474 54.8388 5.47885 54.9208 5.61534 54.9762C5.75183 55.0315 5.89797 55.0592 6.04525 55.0575C6.34214 55.0576 6.62736 54.9419 6.84025 54.735L9.35275 52.215L9.51775 52.3875L11.8653 54.735C11.9697 54.8388 12.0938 54.9208 12.2303 54.9762C12.3668 55.0315 12.513 55.0592 12.6603 55.0575C12.8149 55.0645 12.9694 55.0394 13.1139 54.9839C13.2584 54.9284 13.39 54.8437 13.5003 54.735C13.7096 54.5218 13.8269 54.235 13.8269 53.9363C13.8269 53.6375 13.7096 53.3507 13.5003 53.1375L10.9503 50.625L13.5003 48.1125C13.7091 47.9006 13.8262 47.615 13.8262 47.3175C13.8262 47.02 13.7091 46.7344 13.5003 46.5225Z" fill="#0F1116"/>
<path d="M73.5603 12.45C74.103 11.3491 74.3828 10.1373 74.3778 8.91C74.3699 6.54935 73.4287 4.28765 71.7594 2.61842C70.0902 0.949177 67.8285 0.00790843 65.4678 0C63.1079 0.00593121 60.8462 0.945537 59.1767 2.61358C57.5073 4.28163 56.5658 6.54255 56.5579 8.9025C56.5541 9.80861 56.7037 10.7088 57.0004 11.565L55.4403 11.2725H55.2454H55.1104H55.0353L37.2229 14.565L19.4179 11.2725C19.328 11.265 19.2377 11.265 19.1479 11.2725H18.9304L0.930351 14.6025C0.668802 14.647 0.43162 14.7831 0.261233 14.9865C0.0908466 15.1898 -0.00162834 15.4472 0.000350936 15.7125V59.8425C-0.00388721 60.0133 0.0303082 60.1828 0.10041 60.3386C0.170511 60.4944 0.274726 60.6324 0.405351 60.7425C0.616831 60.9144 0.882907 61.0049 1.15535 60.9975C1.22265 61.0049 1.29056 61.0049 1.35785 60.9975L19.2079 57.6975L37.0504 60.9975C37.1846 61.0175 37.3211 61.0175 37.4554 60.9975L55.2679 57.705L73.0728 60.9975C73.1426 61.0052 73.2131 61.0052 73.2829 60.9975C73.5549 61.0023 73.8201 60.9121 74.0329 60.7425C74.1526 60.6268 74.2455 60.4862 74.3051 60.3308C74.3647 60.1753 74.3896 60.0086 74.3778 59.8425V15.7125C74.3786 15.4487 74.2867 15.193 74.1181 14.9901C73.9494 14.7872 73.7149 14.65 73.4554 14.6025L72.4879 14.4225L73.5004 12.69C73.5307 12.6129 73.5509 12.5323 73.5603 12.45ZM65.4604 22.2975L59.5353 11.7975C59.5161 11.7412 59.4936 11.6861 59.4678 11.6325C59.0287 10.8006 58.802 9.87314 58.8079 8.9325C58.8079 7.16616 59.5095 5.47216 60.7585 4.22317C62.0075 2.97418 63.7015 2.2725 65.4678 2.2725C67.2342 2.2725 68.9282 2.97418 70.1772 4.22317C71.4262 5.47216 72.1278 7.16616 72.1278 8.9325C72.1294 9.87024 71.9029 10.7943 71.4678 11.625C71.4389 11.6771 71.4162 11.7325 71.4003 11.79L65.4604 22.2975ZM2.25035 58.5225V16.6425L18.0004 13.7325V35.4825C17.6553 35.685 17.3179 35.895 16.9879 36.105C16.7835 36.237 16.6275 36.4316 16.5431 36.6598C16.4587 36.8879 16.4506 37.1372 16.5198 37.3704C16.5891 37.6036 16.7321 37.808 16.9273 37.9531C17.1226 38.0981 17.3596 38.176 17.6028 38.175C17.7395 38.1736 17.8745 38.1456 18.0004 38.0925V55.6125L2.25035 58.5225ZM20.3404 36.7725C20.8429 36.5025 21.3528 36.2325 21.8929 35.9775C22.0277 35.9156 22.1488 35.8273 22.249 35.7178C22.3491 35.6083 22.4263 35.4798 22.476 35.34C22.5256 35.2001 22.5467 35.0518 22.538 34.9036C22.5293 34.7555 22.491 34.6106 22.4254 34.4775C22.3626 34.3433 22.2739 34.2229 22.1644 34.1231C22.055 34.0233 21.9269 33.9461 21.7875 33.8959C21.6481 33.8458 21.5002 33.8236 21.3523 33.8307C21.2043 33.8379 21.0592 33.8742 20.9254 33.9375L20.3329 34.23V13.7325L36.0829 16.6425V29.5275C35.8935 29.6484 35.7441 29.8225 35.6534 30.028C35.5626 30.2334 35.5346 30.4611 35.5729 30.6825C35.6007 30.8362 35.6605 30.9824 35.7483 31.1116C35.8362 31.2408 35.9501 31.3501 36.0829 31.4325V58.5225L20.3329 55.6125L20.3404 36.7725ZM38.3404 31.365C39.2854 31.2 40.2304 31.035 41.1604 30.885C41.4587 30.8373 41.7259 30.673 41.9031 30.4282C42.0803 30.1835 42.1531 29.8784 42.1054 29.58C42.0576 29.2816 41.8933 29.0144 41.6486 28.8372C41.4038 28.66 41.0987 28.5873 40.8004 28.635C39.9904 28.7625 39.1654 28.9125 38.3404 29.0475V16.6425L54.0904 13.7325V55.6125L38.3404 58.5225V31.365ZM72.0903 16.665V58.5225L56.3404 55.6125V27.8025C56.4359 27.8284 56.534 27.8435 56.6329 27.8475C56.745 27.849 56.8567 27.8312 56.9628 27.795C58.4284 27.3626 59.8497 26.7926 61.2078 26.0925C61.4669 25.9537 61.6614 25.7191 61.7497 25.4388C61.838 25.1585 61.8131 24.8547 61.6803 24.5925C61.5402 24.3348 61.3055 24.1416 61.0257 24.0534C60.746 23.9653 60.4429 23.9892 60.1803 24.12C58.9636 24.7344 57.6934 25.2365 56.3853 25.62V13.7325L58.2753 14.085L64.5004 25.14C64.5985 25.3131 64.7408 25.4571 64.9127 25.5573C65.0846 25.6575 65.2801 25.7103 65.4791 25.7103C65.6781 25.7103 65.8736 25.6575 66.0455 25.5573C66.2174 25.4571 66.3597 25.3131 66.4578 25.14L71.3328 16.4925L72.0903 16.665Z" fill="#0F1116"/>
<path d="M65.4604 12.48C66.2763 12.48 67.0738 12.2381 67.7522 11.7848C68.4305 11.3316 68.9592 10.6873 69.2715 9.93358C69.5837 9.17984 69.6654 8.35044 69.5062 7.55026C69.347 6.75009 68.9542 6.01509 68.3773 5.4382C67.8004 4.86131 67.0654 4.46844 66.2652 4.30927C65.465 4.15011 64.6356 4.2318 63.8819 4.54401C63.1281 4.85622 62.4839 5.38493 62.0306 6.06329C61.5774 6.74164 61.3354 7.53917 61.3354 8.35501C61.3354 9.44903 61.77 10.4982 62.5436 11.2718C63.3172 12.0454 64.3664 12.48 65.4604 12.48ZM65.4604 6.48001C65.8313 6.48001 66.1938 6.58998 66.5021 6.79601C66.8105 7.00204 67.0508 7.29487 67.1927 7.63748C67.3346 7.98009 67.3718 8.35709 67.2994 8.72081C67.2271 9.08452 67.0485 9.41861 66.7863 9.68084C66.5241 9.94306 66.19 10.1216 65.8262 10.194C65.4625 10.2663 65.0855 10.2292 64.7429 10.0873C64.4003 9.94537 64.1075 9.70505 63.9014 9.39671C63.6954 9.08837 63.5854 8.72585 63.5854 8.35501C63.5854 8.10878 63.6339 7.86497 63.7282 7.63748C63.8224 7.41 63.9605 7.2033 64.1346 7.02919C64.3087 6.85508 64.5154 6.71697 64.7429 6.62274C64.9704 6.52851 65.2142 6.48001 65.4604 6.48001Z" fill="#0F1116"/>
</svg>
