<svg width="71" height="63" viewBox="0 0 71 63" fill="none" xmlns="http://www.w3.org/2000/svg">
<path d="M31.8778 0.248051C27.0438 0.716801 23.8211 2.02051 21.7118 4.34961C20.3348 5.8877 19.5585 7.63086 19.119 10.2822L18.87 11.7471L12.3661 11.8203C8.10338 11.8789 5.70104 11.9668 5.39342 12.0693C3.60631 12.6992 1.93639 14.1348 1.13072 15.7168C0.178575 17.6064 0.22252 16.4639 0.22252 37.3379C0.22252 58.0508 0.178575 57.1133 1.07213 58.7539C1.29186 59.1641 1.8485 59.9111 2.3319 60.4092C3.37193 61.5225 5.04186 62.416 6.52135 62.6504C7.83971 62.8555 62.493 62.8555 63.7967 62.6504C66.6385 62.1963 69.1288 59.9258 69.8758 57.0693C70.0663 56.3955 70.0956 53.29 70.0956 37.3965C70.0956 18.6025 70.0956 18.5147 69.7879 17.4746C69.202 15.5117 68.3963 14.3106 66.9461 13.2119C65.1737 11.8789 65.3348 11.9082 58.0106 11.8203L51.5653 11.7471L51.4627 10.8242C51.1551 7.96778 50.1444 5.77051 48.328 3.95411C47.3172 2.94336 46.9071 2.65039 45.618 2.02051C43.0545 0.790043 40.4032 0.277348 36.0379 0.174809C34.5145 0.145512 32.6395 0.174809 31.8778 0.248051ZM39.3338 6.18067C43.5379 6.75196 45.4569 8.2168 45.6473 11.0147L45.7059 11.7471L35.2469 11.791C29.4901 11.8057 24.7294 11.7764 24.6708 11.7178C24.4803 11.5273 24.8172 10.1797 25.2713 9.22754C26.1356 7.48438 28.0399 6.51758 31.4676 6.12207C33.2254 5.917 37.6639 5.94629 39.3338 6.18067ZM63.87 16.3467C64.5292 16.6397 65.3641 17.5039 65.4959 18.0313C65.5545 18.3096 64.9247 19.5107 62.537 23.6416C59.1971 29.4131 58.6112 30.1748 56.8241 31.1123C55.1981 31.9766 54.6708 32.0352 48.328 32.0352H42.6004L42.5272 30.8047C42.4833 29.8672 42.3807 29.3984 42.0731 28.7832C41.5458 27.6992 40.4911 26.7471 39.4071 26.3369C38.5868 26.0293 38.3671 26.0147 34.7342 26.0586C31.1161 26.1025 30.8817 26.1172 30.2372 26.4395C28.4794 27.3037 27.5272 28.7539 27.3661 30.8193L27.2782 32.0352H21.6239C15.2958 32.0352 15.0321 32.0059 13.2157 31.0537C11.1942 29.9844 10.8426 29.5303 7.45885 23.7148C5.78893 20.8438 4.39732 18.4414 4.36803 18.3828C4.26549 18.1777 5.80357 16.6836 6.41881 16.376C7.03404 16.0684 7.04869 16.0684 35.159 16.0684C62.0536 16.0684 63.3133 16.083 63.87 16.3467ZM5.80357 28.915C7.18053 31.3467 7.56139 31.9033 8.51353 32.8408C9.8026 34.1445 11.6776 35.2871 13.7137 36.0195C14.6219 36.3418 14.827 36.3564 21.1698 36.4297L27.6883 36.5029L27.7762 38.4805C27.8348 40.1211 27.9081 40.5752 28.1864 41.1318C28.7137 42.2305 29.4462 42.9629 30.5155 43.4902L31.4969 43.9736H35.2323C39.7879 43.9736 40.0956 43.9004 41.4725 42.5234C42.6444 41.3516 42.8495 40.7363 42.952 38.29L43.0399 36.4297H49.2069C54.9491 36.4297 55.4471 36.415 56.4432 36.1367C59.6659 35.2432 62.3758 33.207 63.9579 30.4824C64.3387 29.8525 64.9393 28.7979 65.3202 28.1533L65.994 26.9814L65.9501 41.5859L65.9208 56.1758L65.4813 56.8057C65.2323 57.1572 64.7489 57.6406 64.3973 57.8896L63.7674 58.3291L35.3641 58.373C7.45885 58.4023 6.94615 58.4023 6.38951 58.124C5.5692 57.6992 4.96861 56.9375 4.77818 56.0586C4.61705 55.3408 4.52916 27.0547 4.67564 27.0547C4.71959 27.0547 5.21764 27.8897 5.80357 28.915ZM38.4256 35.126L38.3817 39.4326H35.3788H32.3758V35.1113V30.79L35.3055 30.7168C36.9169 30.6729 38.2792 30.6875 38.3524 30.7314C38.411 30.7754 38.4403 32.7529 38.4256 35.126Z" fill="#0F1116"/>
</svg>
