<svg width="53" height="73" viewBox="0 0 53 73" fill="none" xmlns="http://www.w3.org/2000/svg">
<path d="M39.1563 21.6611C43.1407 21.6611 46.378 18.4238 46.378 14.4395C46.378 10.4551 43.1407 7.21777 39.1563 7.21777C35.1719 7.21777 31.9346 10.4551 31.9346 14.4395C31.92 18.4092 35.1719 21.6611 39.1563 21.6611ZM39.1563 10.25C41.4561 10.25 43.3311 12.125 43.3311 14.4248C43.3311 16.7246 41.4561 18.5996 39.1563 18.5996C36.8565 18.5996 34.9815 16.7246 34.9815 14.4248C34.9815 12.125 36.8565 10.25 39.1563 10.25Z" fill="#0F1116"/>
<path d="M52.9697 14.4248C52.9697 6.80762 46.7734 0.611328 39.1562 0.611328C31.5391 0.611328 25.3428 6.80762 25.3428 14.4248C25.3428 15.8896 25.8408 17.8232 26.6318 19.9619C26.5 19.9619 26.3828 19.9619 26.251 19.9619C11.793 19.9619 0.0449219 31.7246 0.0449219 46.168C0.0449219 60.6113 11.793 72.3887 26.251 72.3887C40.709 72.3887 52.457 60.626 52.457 46.1826C52.457 40.3379 50.4941 34.6689 46.8906 30.0693C49.9668 24.4443 52.9697 18.0576 52.9697 14.4248ZM39.1562 3.67285C45.0889 3.67285 49.9229 8.50684 49.9229 14.4395C49.9229 18.6143 40.2842 35.3867 39.1562 37.1738C37.0469 33.8047 28.3896 17.7939 28.3896 14.4395C28.3896 8.49219 33.2236 3.67285 39.1562 3.67285ZM49.3516 47.7061C49.1172 51.2217 48.1064 54.5322 46.4658 57.4473H39.3174C40.0791 54.4736 40.5479 51.1924 40.6504 47.7061H49.3516ZM36.1387 57.4473H27.7744V47.7061H37.6035C37.4863 51.207 36.959 54.5176 36.1387 57.4473ZM3.13574 47.7061H11.8369C11.9395 51.1924 12.4082 54.4883 13.1699 57.4473H6.02148C4.39551 54.5322 3.37012 51.2217 3.13574 47.7061ZM6.02148 34.9033H13.1699C12.4082 37.877 11.9395 41.1582 11.8369 44.6445H3.13574C3.37012 41.1289 4.39551 37.8184 6.02148 34.9033ZM32.4033 31.8564H27.7744V23.2578C27.8477 23.2871 27.9355 23.3018 28.0088 23.3311C29.2979 26.1729 30.8799 29.1611 32.4033 31.8564ZM24.7129 23.2432V31.8564H17.374C19.1758 27.2861 21.7979 24.0781 24.7129 23.2432ZM24.7129 34.9033V44.6445H14.8838C15.001 41.1436 15.5283 37.833 16.3486 34.9033H24.7129ZM14.8984 47.7061H24.7275V57.4473H16.3633C15.5283 54.5176 15.0156 51.207 14.8984 47.7061ZM24.7129 60.5088V69.1221C21.7832 68.2871 19.1758 65.0791 17.374 60.5088H24.7129ZM27.7744 69.1074V60.4941H35.1133C33.3115 65.0645 30.7041 68.2725 27.7744 69.1074ZM27.7744 44.6445V34.9033H33.458C33.6924 34.9033 33.9121 34.8447 34.1025 34.7568C35.3477 36.8662 36.4609 38.624 37.1641 39.7373C37.3984 41.3486 37.5449 43.0039 37.6035 44.6445H27.7744ZM18.0039 24.5322C16.4512 26.4658 15.1182 28.9561 14.0928 31.8418H8.07226C10.6357 28.5898 14.0635 26.041 18.0039 24.5322ZM8.05762 60.5088H14.0928C15.1182 63.3945 16.4365 65.8848 18.0039 67.8184C14.0635 66.3096 10.6357 63.7607 8.05762 60.5088ZM34.498 67.8184C36.0508 65.8848 37.3838 63.3945 38.4092 60.5088H44.4443C41.8516 63.7607 38.4385 66.3096 34.498 67.8184ZM49.3516 44.6445H40.6504C40.6064 43.3994 40.5186 42.1396 40.3867 40.9092C40.3867 40.9092 43.1113 36.6758 45.25 32.9697C47.6523 36.4268 49.0732 40.4697 49.3516 44.6445Z" fill="#0F1116"/>
</svg>
