<svg width="75" height="75" viewBox="0 0 75 75" fill="none" xmlns="http://www.w3.org/2000/svg">
<path d="M34.3813 32.8094C34.3813 28.8907 31.7282 25.4938 27.9283 24.5438L23.2377 23.3719L23.0408 22.5875C24.2565 21.2438 25.1221 19.5281 25.4814 17.7469C26.3158 17.3156 26.9188 16.4969 27.0439 15.5125L27.3814 12.7938C27.4846 11.9688 27.2314 11.1375 26.6846 10.5126C26.5159 10.322 26.3221 10.1533 26.1158 10.0126L26.1939 8.35327L26.4782 8.06894C27.2845 7.21274 28.375 5.38462 26.65 2.74702C25.8313 1.4937 24.1438 0 20.7625 0C19.7657 0 17.5188 0 15.3375 1.36567C8.90625 1.59375 8.1501 5.05942 8.1501 7.67505C8.1501 8.19067 8.24385 9.1563 8.3313 9.96255C8.1 10.1095 7.8876 10.2907 7.70317 10.5C7.14697 11.1312 6.89062 11.9656 6.99697 12.7938L7.33447 15.5125C7.46265 16.5313 8.10952 17.3751 9.06255 17.7907C9.4125 19.4938 10.2313 21.1438 11.3719 22.4531L11.1438 23.3719L6.45322 24.5438C2.65635 25.4937 0 28.8937 0 32.8125C0 33.2281 0.162451 33.6281 0.456299 33.9188C0.750147 34.2094 1.14697 34.375 1.56255 34.375L32.8188 34.372C33.6813 34.3718 34.3813 33.6719 34.3813 32.8094ZM3.35317 31.2469C3.89062 29.4656 5.3313 28.0469 7.21875 27.5719L12.8187 26.1719C13.3781 26.0313 13.8155 25.5937 13.9562 25.0345L14.6218 22.3689C14.7593 21.8188 14.5874 21.2376 14.1718 20.8501C12.9561 19.7064 12.1499 18.0346 12.0186 16.3783C11.953 15.5689 11.2592 15.1189 10.4436 15.1189L10.0405 12.6315C10.4905 12.6315 10.9154 12.4409 11.2124 12.1034C11.5093 11.769 11.6467 11.3222 11.5904 10.8753C11.4716 9.93149 11.2811 8.22524 11.2811 7.67534C11.2811 6.05654 11.2811 4.52842 15.8498 4.48154C16.1685 4.47847 16.481 4.37842 16.7435 4.19092C18.231 3.12524 19.9434 3.12524 20.7653 3.12524C22.3809 3.12524 23.4497 3.55957 24.0372 4.45649C24.6716 5.42842 24.4122 5.70337 24.2372 5.89395L23.5591 6.57202C23.2841 6.84697 23.1215 7.2126 23.1028 7.60019L22.9375 11C22.9188 11.4249 22.9688 11.7218 23.2594 12.0312C23.5531 12.3406 23.8531 12.4031 24.2782 12.4062L24.0782 14.9468C23.2626 14.9468 22.5876 15.5719 22.522 16.3843C22.3844 18.0687 21.5188 19.8155 20.2626 20.9436C19.8344 21.328 19.6501 21.9217 19.7908 22.4842L20.4283 25.0373C20.5689 25.5967 21.0032 26.0373 21.5657 26.1747L27.1657 27.5747C29.047 28.0465 30.4844 29.4653 31.0219 31.2497L3.35317 31.2469Z" fill="#0F1116"/>
<path d="M68.4846 24.5375L63.794 23.3656L63.5972 22.5812C64.8128 21.2375 65.6784 19.5249 66.0347 17.7437C66.869 17.3155 67.4753 16.4937 67.6003 15.5093L67.9378 12.7906C68.0409 11.9687 67.7878 11.1375 67.241 10.5125C67.0691 10.3187 66.8753 10.1499 66.6691 10.0093L66.7472 8.35298L67.0347 8.06543C67.841 7.20923 68.9315 5.3811 67.2035 2.74351C66.3815 1.4937 64.6971 0 61.319 0C60.3253 0 58.0784 0 55.8972 1.36567C49.466 1.59375 48.7097 5.05942 48.7097 7.67505C48.7097 8.19067 48.8034 9.1563 48.8909 9.96255C48.6596 10.1095 48.4502 10.2876 48.2658 10.4969C47.7096 11.122 47.4502 11.9594 47.5533 12.7938L47.8939 15.5125C48.0221 16.5313 48.6689 17.3751 49.622 17.7907C49.9719 19.4938 50.7876 21.1438 51.9282 22.4531L51.7001 23.3719L47.0096 24.5438C43.2127 25.4937 40.5596 28.8937 40.5596 32.8125C40.5596 33.2281 40.722 33.6281 41.0159 33.9188C41.3096 34.2094 41.7065 34.375 42.1221 34.375L73.3753 34.3657C74.2378 34.3657 74.9378 33.6656 74.9378 32.8031C74.9378 28.8844 72.2847 25.4875 68.4846 24.5375ZM43.9127 31.2469C44.4502 29.4656 45.8878 28.0469 47.7689 27.5719L53.3689 26.1719C53.9283 26.0344 54.3657 25.597 54.5064 25.0375L55.175 22.372C55.3126 21.8219 55.1406 21.2407 54.7251 20.8532C53.5094 19.7125 52.7063 18.0407 52.5719 16.3813C52.5063 15.5688 51.8125 15.1188 50.9969 15.1188L50.594 12.6312C51.044 12.6312 51.469 12.4406 51.7659 12.1031C52.0628 11.7687 52.2002 11.3219 52.144 10.875C52.0252 9.9312 51.8346 8.22495 51.8346 7.67505C51.8346 6.05625 51.8346 4.52812 56.4033 4.48125C56.7221 4.47817 57.0345 4.37813 57.297 4.19063C58.7846 3.12495 60.497 3.12495 61.3189 3.12495C63.7189 3.12495 64.3751 4.12808 64.5939 4.4562C65.2283 5.42812 64.9688 5.70308 64.7938 5.89058L64.1125 6.56865C63.8376 6.8436 63.675 7.21245 63.6562 7.5999L63.4905 11C63.4718 11.4249 63.5217 11.7218 63.8156 12.0312C64.1062 12.3406 64.4093 12.4031 64.8344 12.4062L64.6312 14.9468C63.8156 14.9468 63.1406 15.575 63.075 16.3875C62.9406 18.0687 62.0749 19.8157 60.8187 20.9438C60.3905 21.3281 60.2062 21.9218 60.3468 22.4843L60.9843 25.0374C61.125 25.5968 61.5593 26.0375 62.1218 26.1749L67.7217 27.5748C69.603 28.0466 71.0405 29.4655 71.5779 31.2498L43.9127 31.2469Z" fill="#0F1116"/>
<path d="M56.7061 37.9594L50.4561 44.2094C49.8467 44.8188 49.8467 45.8095 50.4561 46.4189C50.7624 46.7219 51.1623 46.8752 51.5623 46.8752C51.9624 46.8752 52.3623 46.7221 52.6655 46.4189L58.9155 40.1688C59.5249 39.5594 59.5249 38.5688 58.9155 37.9594C58.3062 37.35 57.3155 37.35 56.7061 37.9594Z" fill="#0F1116"/>
<path d="M46.6783 65.1687L41.9877 63.9968L41.7908 63.2124C43.0065 61.8687 43.8721 60.1531 44.2314 58.3718C45.0658 57.9406 45.6688 57.1219 45.7939 56.1375L46.1314 53.4187C46.2346 52.5937 45.9814 51.7624 45.4346 51.1375C45.2659 50.947 45.0721 50.7782 44.8658 50.6376L44.9439 48.9782L45.2282 48.6939C46.0345 47.8377 47.125 46.0096 45.4 43.372C44.5813 42.1188 42.8938 40.6251 39.5125 40.6251C38.5157 40.6251 36.2688 40.6251 34.0875 41.9908C27.6562 42.2188 26.9 45.6845 26.9 48.3001C26.9 48.8158 26.9937 49.7814 27.0812 50.5876C26.8499 50.7346 26.6375 50.9158 26.453 51.1251C25.8968 51.7563 25.6405 52.5907 25.7468 53.4189L26.0843 56.1376C26.2125 57.1564 26.8594 58.0002 27.8124 58.4158C28.1624 60.1189 28.9812 61.7689 30.1217 63.0782L29.8937 63.997L25.2031 65.1688C21.4062 66.1188 18.75 69.5188 18.75 73.4376C18.75 73.8532 18.9124 74.2532 19.2063 74.5438C19.5001 74.8345 19.8971 75 20.3127 75L51.5689 74.9969C52.4314 74.9969 53.1315 74.2969 53.1315 73.4344C53.1315 69.5156 50.4784 66.1188 46.6783 65.1687ZM22.1033 71.8718C22.6408 70.0906 24.0814 68.6719 25.9689 68.1968L31.569 66.7969C32.1284 66.6562 32.5658 66.2187 32.7064 65.6594L33.3721 62.9938C33.5096 62.4438 33.3376 61.8625 32.9221 61.4751C31.7064 60.3313 30.9001 58.6595 30.7689 57.0032C30.7033 56.1939 30.0095 55.7439 29.1939 55.7439L28.7908 53.2564C29.2408 53.2564 29.6657 53.0659 29.9626 52.7284C30.2596 52.3939 30.397 51.9472 30.3407 51.5002C30.2219 50.5564 30.0313 48.8502 30.0313 48.3003C30.0313 46.6815 30.0313 45.1534 34.6 45.1065C34.9188 45.1034 35.2313 45.0034 35.4937 44.8159C36.9813 43.7502 38.6937 43.7502 39.5156 43.7502C41.1312 43.7502 42.2 44.1845 42.7875 45.0814C43.4219 46.0534 43.1625 46.3283 42.9875 46.5189L42.3094 47.197C42.0344 47.4719 41.8718 47.8375 41.8531 48.2251L41.6874 51.6252C41.6687 52.0501 41.7186 52.3471 42.0092 52.6564C42.3029 52.9658 42.6029 53.0284 43.028 53.0314L42.8281 55.5721C42.0124 55.5721 41.3375 56.1971 41.2718 57.0095C41.1343 58.6939 40.2687 60.4408 39.0124 61.5688C38.5843 61.9532 38.4 62.5469 38.5406 63.1094L39.1781 65.6625C39.3187 66.2219 39.7531 66.6625 40.3156 66.7999L45.9155 68.1999C47.7968 68.6717 49.2343 70.0906 49.7717 71.8749L22.1033 71.8718Z" fill="#0F1116"/>
<path d="M21.8749 46.875C22.2749 46.875 22.6748 46.7219 22.978 46.4187C23.5874 45.8093 23.5874 44.8187 22.978 44.2093L16.728 37.9592C16.1186 37.3499 15.1279 37.3499 14.5186 37.9592C13.9092 38.5686 13.9092 39.5593 14.5186 40.1686L20.7686 46.4187C21.0748 46.7219 21.4748 46.875 21.8749 46.875Z" fill="#0F1116"/>
</svg>
