<svg width="63" height="63" viewBox="0 0 63 63" fill="none" xmlns="http://www.w3.org/2000/svg">
<path d="M59.375 27.4062V12.5C59.375 8.21875 50.4687 6.25 42.1875 6.25C39.5704 6.23988 36.9571 6.44894 34.375 6.875V6.25C34.375 1.96875 25.4687 0 17.1875 0C8.90625 0 0 1.96875 0 6.25V53.125C0 57.4062 8.90625 59.375 17.1875 59.375C20.1558 59.3801 23.1175 59.0976 26.0312 58.5312C30.4204 61.4889 35.6825 62.8717 40.9587 62.4539C46.2349 62.0361 51.2138 59.8425 55.0828 56.2309C58.9518 52.6193 61.4826 47.8031 62.2621 42.5681C63.0417 37.3331 62.0239 31.9884 59.375 27.4062ZM49.6562 18.1875C51.9373 17.8864 54.1601 17.2438 56.25 16.2812V23.1875C54.3638 21.1454 52.1316 19.4527 49.6562 18.1875ZM17.1875 12.5C21.9966 12.6769 26.7888 11.8356 31.25 10.0312V15.625C31 16.5 26.3125 18.75 17.1875 18.75C8.0625 18.75 3.375 16.4687 3.125 15.625V10.0312C7.58625 11.8356 12.3784 12.6769 17.1875 12.5ZM17 31.25C16.2338 33.2535 15.7704 35.3599 15.625 37.5C7.5 37.25 3.28125 35.2187 3.125 34.375V28.7812C7.52987 30.5536 12.2541 31.3942 17 31.25ZM3.125 43.75V38.1562C7.08355 39.8104 11.3348 40.65 15.625 40.625C15.7749 42.7585 16.2165 44.8614 16.9375 46.875C8 46.875 3.375 44.5937 3.125 43.75ZM18.375 28.125H17.1875C8.0625 28.125 3.375 25.8437 3.125 25V19.4062C7.58625 21.2106 12.3784 22.0519 17.1875 21.875C19.34 21.8828 21.4906 21.7471 23.625 21.4687C21.4865 23.3514 19.7076 25.6067 18.375 28.125ZM42.1875 9.375C51.3437 9.375 56.0312 11.6562 56.25 12.5C56.4687 13.3437 51.3437 15.625 42.1875 15.625C39.5693 15.631 36.9555 15.4114 34.375 14.9687V10.0312C36.9555 9.58859 39.5693 9.36903 42.1875 9.375ZM17.1875 3.125C26.25 3.125 30.9375 5.375 31.25 6.25C30.9375 7.09375 26.5625 9.1875 18.1562 9.375H17.1875C8.0625 9.375 3.375 7.09375 3.125 6.25C3.375 5.40625 8.0625 3.125 17.1875 3.125ZM17.1875 56.25C8.0625 56.25 3.375 53.9687 3.125 53.125V47.5312C7.58625 49.3356 12.3784 50.1769 17.1875 50H18.3437C19.5014 52.1909 20.9992 54.1845 22.7812 55.9062C20.9254 56.1348 19.0573 56.2496 17.1875 56.25ZM39.0625 59.375C35.0451 59.375 31.1179 58.1837 27.7775 55.9517C24.4371 53.7198 21.8336 50.5474 20.2962 46.8358C18.7588 43.1241 18.3565 39.04 19.1403 35.0997C19.9241 31.1595 21.8586 27.5401 24.6994 24.6994C27.5401 21.8586 31.1595 19.9241 35.0997 19.1403C39.04 18.3565 43.1241 18.7588 46.8358 20.2962C50.5474 21.8336 53.7198 24.4371 55.9517 27.7775C58.1837 31.1179 59.375 35.0451 59.375 39.0625C59.3667 44.4472 57.224 49.6089 53.4165 53.4165C49.6089 57.224 44.4472 59.3667 39.0625 59.375Z" fill="#0F1116"/>
<path d="M40.6249 37.5V30.3125C41.3467 30.4432 42.0192 30.7683 42.5699 31.2529C43.1205 31.7375 43.5285 32.3632 43.7499 33.0625C43.8494 33.4769 44.1094 33.8348 44.4728 34.0575C44.8361 34.2802 45.273 34.3495 45.6874 34.25C46.1018 34.1505 46.4598 33.8905 46.6825 33.5272C46.9052 33.1638 46.9744 32.7269 46.8749 32.3125C46.4281 30.9583 45.6014 29.7611 44.4933 28.8635C43.3852 27.966 42.0424 27.4059 40.6249 27.25V26.5625C40.6249 26.1481 40.4603 25.7507 40.1673 25.4576C39.8743 25.1646 39.4768 25 39.0624 25C38.648 25 38.2506 25.1646 37.9576 25.4576C37.6646 25.7507 37.4999 26.1481 37.4999 26.5625V27.2188C35.8463 27.4139 34.314 28.1845 33.1713 29.3957C32.0287 30.607 31.3485 32.1815 31.2499 33.8438C31.2538 34.3269 31.3061 34.8085 31.4062 35.2812C31.7999 36.664 32.5842 37.9037 33.6652 38.8516C34.7461 39.7995 36.0776 40.4153 37.4999 40.625V47.8437C36.7781 47.7131 36.1057 47.3879 35.555 46.9033C35.0044 46.4187 34.5963 45.7931 34.3749 45.0938C34.2755 44.6793 34.0155 44.3214 33.6521 44.0987C33.2888 43.876 32.8518 43.8068 32.4374 43.9062C32.023 44.0057 31.6651 44.2657 31.4424 44.6291C31.2197 44.9924 31.1505 45.4293 31.2499 45.8438C31.6949 47.1962 32.5218 48.3909 33.6309 49.2837C34.7399 50.1765 36.0837 50.7291 37.4999 50.875V51.5625C37.4999 51.9769 37.6646 52.3743 37.9576 52.6674C38.2506 52.9604 38.648 53.125 39.0624 53.125C39.4768 53.125 39.8743 52.9604 40.1673 52.6674C40.4603 52.3743 40.6249 51.9769 40.6249 51.5625V50.875C42.064 50.7147 43.424 50.1344 44.5354 49.2063C45.6468 48.2783 46.4605 47.0436 46.8749 45.6563C46.9715 45.2041 47.0238 44.7436 47.0312 44.2812C46.9571 42.5696 46.2687 40.9419 45.0922 39.6964C43.9156 38.451 42.3297 37.6712 40.6249 37.5ZM34.3749 34.375C34.3425 34.147 34.3425 33.9155 34.3749 33.6875C34.4559 32.8576 34.8045 32.0765 35.3682 31.4621C35.9319 30.8477 36.6801 30.4332 37.4999 30.2812V37.125C36.7973 37.0048 36.1386 36.7019 35.5901 36.2466C35.0415 35.7914 34.6225 35.1998 34.3749 34.5313V34.375ZM43.7499 44.9375C43.5285 45.6368 43.1205 46.2625 42.5699 46.7471C42.0192 47.2317 41.3467 47.5568 40.6249 47.6875V40.8437C41.4495 40.9973 42.2013 41.4163 42.7655 42.037C43.3297 42.6576 43.6755 43.4458 43.7499 44.2812C43.7781 44.4991 43.7781 44.7197 43.7499 44.9375Z" fill="#0F1116"/>
</svg>
