<svg width="67" height="75" viewBox="0 0 67 75" fill="none" xmlns="http://www.w3.org/2000/svg">
<path d="M20.651 51.2342C23.9097 49.035 26.0568 45.3086 26.0568 41.0901C26.0568 34.3465 20.5706 28.8604 13.8271 28.8604C7.08347 28.8604 1.59729 34.3465 1.59729 41.0901C1.59729 45.3086 3.74439 49.035 7.00313 51.2342C3.52117 52.2277 0.963379 55.4359 0.963379 59.2323V73.7973C0.963379 74.4615 1.50188 75 2.1661 75H25.488C26.1522 75 26.6907 74.4615 26.6907 73.7973V59.2323C26.6907 55.4359 24.1331 52.2277 20.651 51.2342ZM16.6002 54.9835L15.1395 53.3199H18.061L16.6002 54.9835ZM11.9383 53.3199L14.837 56.621L12.1235 58.6451L10.8153 53.3199H11.9383ZM20.8019 53.8441C20.9549 53.9134 21.1045 53.9884 21.2503 54.0699L20.8222 58.455L18.3636 56.621L20.8019 53.8441ZM4.00274 41.0901C4.00274 35.6729 8.40983 31.2658 13.8271 31.2658C19.2443 31.2658 23.6514 35.6729 23.6514 41.0901C23.6514 46.5073 19.2443 50.9144 13.8271 50.9144C8.40983 50.9144 4.00274 46.5073 4.00274 41.0901ZM3.36882 59.2323C3.36882 56.2869 5.53404 53.8382 8.35627 53.3927L10.2205 60.9808C10.3167 61.3724 10.6026 61.6896 10.9822 61.8259C11.1144 61.8733 11.2516 61.8966 11.3883 61.8966C11.6439 61.8966 11.8968 61.8151 12.1075 61.658L15.3975 59.2038V72.5946H9.30739V60.6722C9.30739 60.008 8.76889 59.4695 8.10466 59.4695C7.44044 59.4695 6.90194 60.008 6.90194 60.6722V72.5946H3.36882V59.2323ZM24.2853 72.5946H17.8031V59.2038L21.0931 61.658C21.3045 61.8156 21.5574 61.8966 21.8123 61.8966C21.977 61.8966 22.1427 61.8627 22.2985 61.7938C22.6954 61.6184 22.9671 61.2426 23.0093 60.8106L23.4575 56.2194C23.9827 57.1024 24.2854 58.1324 24.2854 59.2323L24.2853 72.5946Z" fill="#0F1116"/>
<path d="M20.49 62.6096C20.2987 62.1561 19.8443 61.8552 19.3499 61.8679C18.8249 61.8813 18.3626 62.2442 18.2212 62.7491C18.0832 63.2409 18.2858 63.7877 18.7115 64.0706C19.1327 64.3503 19.7024 64.3343 20.1051 64.0288C20.5345 63.7026 20.7015 63.1088 20.49 62.6096C20.5206 62.6817 20.4595 62.5374 20.49 62.6096Z" fill="#0F1116"/>
<path d="M13.3969 38.8516C13.2094 38.4079 12.7708 38.1091 12.2864 38.1091C11.8037 38.1091 11.3612 38.4077 11.1759 38.8516C10.9783 39.3248 11.1143 39.8938 11.5052 40.2261C11.9029 40.564 12.4886 40.606 12.9293 40.3266C13.4152 40.0189 13.6217 39.3843 13.3969 38.8516C13.4274 38.9239 13.3664 38.7796 13.3969 38.8516Z" fill="#0F1116"/>
<path d="M19.0422 39.7723C19.2335 40.2251 19.6885 40.5266 20.1827 40.5139C20.7162 40.5003 21.1899 40.1217 21.319 39.6036C21.4342 39.1412 21.2578 38.6412 20.8785 38.3532C20.4619 38.037 19.8687 38.0306 19.4462 38.3388C19.0004 38.6638 18.8315 39.2623 19.0422 39.7723C19.0725 39.8443 19.0117 39.6985 19.0422 39.7723Z" fill="#0F1116"/>
<path d="M50.0649 28.0898C50.2615 28.2151 50.486 28.2781 50.711 28.2781C50.9099 28.2781 51.1089 28.2289 51.2895 28.1297C51.6743 27.9185 51.9137 27.5144 51.9137 27.0754V24.2782H53.1375C55.1977 24.2782 56.8738 22.602 56.8738 20.542V7.96811C56.8738 5.90793 55.1977 4.23182 53.1375 4.23182H40.6776V3.73646C40.6776 1.67611 39.0015 0 36.9411 0H14.8688C12.8084 0 11.1323 1.67627 11.1323 3.73646V16.3089C11.1323 18.3693 12.8086 20.0454 14.8688 20.0454H16.0924V22.8437C16.0924 23.2828 16.3316 23.6871 16.7166 23.8983C16.8972 23.9974 17.0962 24.0464 17.2949 24.0464C17.5201 24.0464 17.7447 23.9832 17.9413 23.858L23.9238 20.0454H27.3285V20.542C27.3285 22.6022 29.0046 24.2782 31.0646 24.2782H44.0815L50.0649 28.0898ZM23.5733 17.6399C23.3443 17.6399 23.1199 17.7054 22.9269 17.8284L18.4978 20.6511V18.8426C18.4978 18.1784 17.9593 17.6399 17.2951 17.6399H14.8688C14.1348 17.6399 13.5378 17.0429 13.5378 16.3089V3.73646C13.5378 3.00248 14.135 2.40544 14.8688 2.40544H36.9411C37.675 2.40544 38.2722 3.00264 38.2722 3.73646V4.23182H31.0648C29.436 4.23182 28.0482 5.27995 27.5381 6.73685H18.36C17.6958 6.73685 17.1573 7.27535 17.1573 7.93957C17.1573 8.60379 17.6958 9.14229 18.36 9.14229H27.3287V11.1532H18.36C17.6958 11.1532 17.1573 11.6917 17.1573 12.356C17.1573 13.0202 17.6958 13.5587 18.36 13.5587H27.3287V17.6399H23.5733ZM29.7339 20.542V7.96811C29.7339 7.23429 30.331 6.63726 31.0646 6.63726H53.1373C53.8711 6.63726 54.4682 7.23429 54.4682 7.96811V20.5419C54.4682 21.2757 53.8711 21.8725 53.1373 21.8725H50.7109C50.0465 21.8725 49.5081 22.411 49.5081 23.0753V24.883L45.0781 22.0608C44.885 21.9378 44.6609 21.8725 44.432 21.8725H31.0648C30.331 21.8727 29.7339 21.2757 29.7339 20.542Z" fill="#0F1116"/>
<path d="M34.5572 13.3743H49.645C50.3093 13.3743 50.8477 12.8358 50.8477 12.1715C50.8477 11.5073 50.3093 10.9688 49.645 10.9688H34.5572C33.8928 10.9688 33.3545 11.5073 33.3545 12.1715C33.3545 12.8358 33.893 13.3743 34.5572 13.3743Z" fill="#0F1116"/>
<path d="M50.8477 16.5876C50.8477 15.9234 50.3093 15.3849 49.645 15.3849H34.5572C33.8928 15.3849 33.3545 15.9234 33.3545 16.5876C33.3545 17.2518 33.8928 17.7903 34.5572 17.7903H49.645C50.3093 17.7903 50.8477 17.2518 50.8477 16.5876Z" fill="#0F1116"/>
<path d="M59.9964 51.2342C63.2551 49.035 65.4022 45.3086 65.4022 41.0901C65.4022 34.3465 59.916 28.8604 53.1724 28.8604C46.4288 28.8604 40.9425 34.3465 40.9425 41.0901C40.9425 45.3086 43.0896 49.035 46.3483 51.2342C42.8662 52.2277 40.3086 55.4359 40.3086 59.2323V73.7973C40.3086 74.4615 40.8469 75 41.5113 75H64.8334C65.4978 75 66.0361 74.4615 66.0361 73.7973V59.2323C66.0361 55.4359 63.4785 52.2277 59.9964 51.2342ZM57.4604 53.3199C56.5466 54.7595 54.9409 55.6854 53.1721 55.6854C51.4033 55.6854 49.7978 54.7595 48.8838 53.3199H57.4604ZM43.3481 41.0901C43.3481 35.6729 47.7552 31.2658 53.1726 31.2658C58.5897 31.2658 62.9969 35.6729 62.9969 41.0901C62.9969 46.5073 58.5898 50.9144 53.1726 50.9144C47.7552 50.9144 43.3481 46.5073 43.3481 41.0901ZM42.7142 59.2323C42.7142 56.7651 44.2336 54.6471 46.3856 53.7623C47.5958 56.3615 50.2344 58.0909 53.1723 58.0909C56.1101 58.0909 58.7487 56.3613 59.959 53.7622C62.1111 54.6469 63.6308 56.7651 63.6308 59.2323V63.5015H59.4178V60.6724C59.4178 60.0081 58.8794 59.4697 58.215 59.4697C57.5507 59.4697 57.0123 60.0081 57.0123 60.6724V72.5947H42.7144V59.2323H42.7142ZM59.4176 72.5946V65.9068H63.6307V72.5946H59.4176Z" fill="#0F1116"/>
<path d="M53.6016 39.7723C53.8137 40.2734 54.3473 40.5831 54.8891 40.5013C55.3648 40.4294 55.7594 40.0728 55.8784 39.6073C56.0033 39.1186 55.7973 38.592 55.38 38.3114C54.9069 37.9932 54.2661 38.067 53.8614 38.4605C53.5257 38.8062 53.4168 39.3237 53.6016 39.7723C53.6322 39.8443 53.5713 39.6985 53.6016 39.7723Z" fill="#0F1116"/>
<path d="M48.0263 39.0763C47.9974 38.922 47.9318 38.7753 47.8483 38.6433C47.2415 37.7554 45.8195 38.0683 45.6585 39.1353C45.5121 40.1045 46.5861 40.8445 47.44 40.3573C47.885 40.1033 48.1289 39.5808 48.0263 39.0763C48.0422 39.1549 48.0119 38.9993 48.0263 39.0763Z" fill="#0F1116"/>
<path d="M53.4092 43.4324C53.0336 43.0567 52.4241 43.0567 52.0487 43.4324C51.7271 43.7538 51.2998 43.9308 50.8453 43.9308C50.3908 43.9308 49.9635 43.7538 49.642 43.4324C49.2664 43.0567 48.6568 43.0567 48.2814 43.4324C47.9055 43.8081 47.9055 44.4173 48.2814 44.7931C48.9881 45.4999 49.9168 45.8534 50.8453 45.8534C51.7738 45.8534 52.7025 45.4999 53.4092 44.7931C53.7851 44.4173 53.7851 43.8083 53.4092 43.4324Z" fill="#0F1116"/>
</svg>
