<svg width="59" height="51" viewBox="0 0 59 51" fill="none" xmlns="http://www.w3.org/2000/svg">
<path d="M58.7969 48.9375C58.7969 49.2483 58.6734 49.5464 58.4536 49.7661C58.2339 49.9859 57.9358 50.1094 57.625 50.1094H1.375C1.0642 50.1094 0.766142 49.9859 0.546376 49.7661C0.32661 49.5464 0.203141 49.2483 0.203125 48.9375V2.0625C0.203125 1.7517 0.32659 1.45363 0.546359 1.23386C0.766129 1.01409 1.0642 0.890625 1.375 0.890625C1.6858 0.890625 1.98387 1.01409 2.20364 1.23386C2.42341 1.45363 2.54688 1.7517 2.54688 2.0625V36.7344L19.2973 19.9839C19.4061 19.8751 19.5353 19.7888 19.6774 19.7299C19.8196 19.6709 19.972 19.6406 20.1259 19.6406C20.2797 19.6406 20.4321 19.6709 20.5743 19.7299C20.7165 19.7888 20.8456 19.8751 20.9544 19.9839L29.5009 28.5301L50.1092 7.92188H41.2196C40.9088 7.92188 40.6107 7.79841 40.391 7.57864C40.1712 7.35887 40.0477 7.0608 40.0477 6.75C40.0477 6.4392 40.1712 6.14113 40.391 5.92136C40.6107 5.70159 40.9088 5.57812 41.2196 5.57812H52.9384C52.9408 5.57812 52.9431 5.57884 52.9457 5.57884C53.0202 5.57924 53.0945 5.58676 53.1677 5.6013C53.2026 5.60817 53.2348 5.62118 53.2685 5.63105C53.3085 5.64125 53.348 5.65352 53.3867 5.66782C53.4246 5.68514 53.4615 5.70458 53.4973 5.72604C53.5277 5.74263 53.5592 5.75592 53.5884 5.77539C53.7168 5.86127 53.8271 5.97162 53.913 6.10012C53.932 6.12859 53.9449 6.1592 53.9612 6.18881C53.983 6.22538 54.0029 6.2631 54.0207 6.30182C54.035 6.34061 54.0472 6.38015 54.0573 6.42027C54.0672 6.45374 54.0802 6.48578 54.0871 6.52055C54.1023 6.59608 54.1101 6.67294 54.1102 6.75V18.4688C54.1102 18.7796 53.9868 19.0776 53.767 19.2974C53.5472 19.5172 53.2491 19.6406 52.9384 19.6406C52.6275 19.6406 52.3295 19.5172 52.1097 19.2974C51.8899 19.0776 51.7665 18.7796 51.7665 18.4688V9.57898L30.3294 31.0161C30.2206 31.1249 30.0914 31.2112 29.9493 31.2701C29.8071 31.3291 29.6547 31.3594 29.5008 31.3594C29.347 31.3594 29.1946 31.3291 29.0524 31.2701C28.9103 31.2112 28.7811 31.1249 28.6723 31.0161L20.1259 22.4699L2.54688 40.0486V47.7656H57.625C57.9358 47.7656 58.2339 47.8891 58.4536 48.1089C58.6734 48.3286 58.7969 48.6267 58.7969 48.9375Z" fill="#0F1116"/>
</svg>
