<svg width="75" height="75" viewBox="0 0 75 75" fill="none" xmlns="http://www.w3.org/2000/svg">
<path d="M29.6053 13.421H53.2896C55.6837 13.421 57.6317 11.4732 57.6317 9.07895C57.6317 8.31899 57.4292 7.56768 57.0463 6.90659C56.7185 6.34072 55.9944 6.14751 55.4281 6.47519C54.8623 6.80303 54.6689 7.52754 54.9969 8.09341C55.1737 8.39883 55.2633 8.73032 55.2633 9.07895C55.2633 10.1673 54.378 11.0527 53.2896 11.0527H29.6054C28.517 11.0527 27.6317 10.1673 27.6317 9.07895C27.6317 7.99058 28.5169 7.10508 29.6053 7.10508H47.3995C47.8229 7.10508 48.2139 6.8792 48.4254 6.5124C48.6368 6.14561 48.6364 5.69385 48.4241 5.32749C48.2473 5.02207 48.1578 4.69058 48.1578 4.34194C48.1578 3.25356 49.0432 2.36821 50.1315 2.36821H70.6578C71.7462 2.36821 72.6315 3.25356 72.6315 4.34194C72.6315 5.43032 71.7462 6.31567 70.6578 6.31567H60.5526C59.8984 6.31567 59.3684 6.84595 59.3684 7.49985C59.3684 8.15376 59.8985 8.68403 60.5526 8.68403H70.6578C73.052 8.68403 74.9999 6.73623 74.9999 4.34194C75 1.9478 73.0521 0 70.658 0H50.1317C47.7375 0 45.7896 1.9478 45.7896 4.34209C45.7896 4.47407 45.7958 4.60576 45.8078 4.73687H29.6053C27.2111 4.73687 25.2632 6.68467 25.2632 9.07895C25.2632 11.4732 27.2111 13.421 29.6053 13.421Z" fill="#0F1116"/>
<path d="M72.2369 48.9473H54.8684C53.3448 48.9473 52.1052 50.187 52.1052 51.7104V54.5525C52.1052 55.2066 52.6352 55.7367 53.2894 55.7367C53.9436 55.7367 54.4736 55.2064 54.4736 54.5525V51.7104C54.4736 51.4929 54.6505 51.3157 54.8684 51.3157H72.2367C72.4544 51.3157 72.6315 51.4928 72.6315 51.7104V56.4473C72.6315 56.6648 72.4546 56.8421 72.2367 56.8421H42.2367C40.7131 56.8421 39.4736 58.0818 39.4736 59.6052V72.6315H32.3684V67.5C32.3684 65.9764 31.1287 64.7369 29.6052 64.7369H22.8946V19.7369H54.8408C54.8597 19.7373 54.8777 19.7373 54.8959 19.7369H60V36.48C58.1795 36.9967 56.8421 38.6739 56.8421 40.6579C56.8421 43.0522 58.79 45 61.1842 45C63.5783 45 65.5263 43.0522 65.5263 40.6579C65.5263 40.0039 64.9963 39.4737 64.3421 39.4737C63.6879 39.4737 63.1579 40.004 63.1579 40.6579C63.1579 41.7463 62.2726 42.6316 61.1842 42.6316C60.0958 42.6316 59.2105 41.7463 59.2105 40.6579C59.2105 39.5695 60.0958 38.6842 61.1842 38.6842C61.8384 38.6842 62.3684 38.1539 62.3684 37.5V19.7369H62.7631C63.4173 19.7369 63.9473 19.2066 63.9473 18.5527C63.9473 17.8986 63.4173 17.3685 62.7631 17.3685H55.077L47.226 14.5137C46.611 14.2903 45.9319 14.6073 45.7083 15.2218C45.4849 15.8363 45.8017 16.5157 46.4164 16.7394L48.1463 17.3684H17.3684V1.18418C17.3684 0.530127 16.8381 0 16.1842 0C15.5301 0 15 0.530273 15 1.18418V17.3684H3.79395L13.1281 6.70063C13.5586 6.20845 13.5088 5.46035 13.0166 5.02969C12.5244 4.59932 11.7765 4.64897 11.3457 5.14116L0.297223 17.7681C6.07688e-06 18.1037 -0.000140391 18.5134 6.09371e-06 18.558V28.0263C6.09371e-06 29.5499 1.2397 30.7894 2.76314 30.7894H5.92105C7.44464 30.7894 8.68419 29.5497 8.68419 28.0263V19.7369H12.6315V26.4196C12.6311 26.4381 12.6311 26.4564 12.6315 26.4749V33.0511C12.6311 33.0696 12.6311 33.0879 12.6315 33.1063V39.6826C12.6311 39.7011 12.6311 39.7194 12.6315 39.7378V46.3141C12.6311 46.3326 12.6311 46.3509 12.6315 46.3693V52.9456C12.6311 52.9641 12.6311 52.9824 12.6315 53.0008V59.5771C12.6311 59.5956 12.6311 59.6139 12.6315 59.6323V64.7364H4.3421C2.81851 64.7364 1.57896 65.9761 1.57896 67.4996V72.6312H1.18419C0.530133 72.6312 6.09371e-06 73.1615 6.09371e-06 73.8154C6.09371e-06 74.4697 0.53028 75 1.18419 75H21.7105C22.3645 75 22.8946 74.4697 22.8946 73.8158C22.8946 73.1618 22.3644 72.6316 21.7105 72.6316H3.94732V67.5C3.94732 67.2825 4.12442 67.1052 4.3421 67.1052H29.6052C29.8228 67.1052 30 67.2823 30 67.5V72.6316H26.4473C25.7933 72.6316 25.2631 73.1619 25.2631 73.8158C25.2631 74.4699 25.7934 75 26.4473 75H73.8157C74.4699 75 74.9999 74.4697 74.9999 73.8158C74.9999 73.1618 74.4699 72.6316 73.8157 72.6316H71.842V67.5C71.842 65.9764 70.6023 64.7369 69.0788 64.7369H54.9078C54.2536 64.7369 53.7236 65.2671 53.7236 65.921C53.7236 66.5751 54.2537 67.1052 54.9078 67.1052H69.0788C69.2965 67.1052 69.4736 67.2823 69.4736 67.5V72.6316H41.8421V67.1054H50.25C50.9042 67.1054 51.4342 66.5751 51.4342 65.9212C51.4342 65.2671 50.9042 64.737 50.25 64.737H41.8421V59.6054C41.8421 59.3878 42.0191 59.2106 42.2369 59.2106H63.1579V62.4869C63.1579 63.1409 63.6879 63.671 64.3421 63.671C64.9963 63.671 65.5263 63.1408 65.5263 62.4869V59.2106H72.2369C73.7605 59.2106 75 57.9709 75 56.4475V51.7104C75 50.187 73.7603 48.9473 72.2369 48.9473ZM6.31583 28.0263C6.31583 28.2438 6.13873 28.421 5.92105 28.421H2.76314C2.54561 28.421 2.36837 28.2439 2.36837 28.0263V19.7369H6.31568L6.31583 28.0263ZM20.5263 64.7369H15V60.4589L18.927 59.15C19.5475 58.9431 19.8829 58.2724 19.6761 57.652C19.4692 57.0315 18.7983 56.696 18.1781 56.9029L15 57.9623V53.8273L18.927 52.5183C19.5475 52.3115 19.8829 51.6407 19.6761 51.0204C19.4692 50.3997 18.7983 50.0647 18.1781 50.2712L15 51.3306V47.1957L18.927 45.8867C19.5475 45.6798 19.8829 45.0091 19.6761 44.3887C19.4692 43.7682 18.7983 43.4328 18.1781 43.6396L15 44.699V40.564L18.927 39.255C19.5475 39.0482 19.8829 38.3774 19.6761 37.7571C19.4692 37.1366 18.7983 36.8013 18.1781 37.008L15 38.0673V33.9324L18.927 32.6234C19.5475 32.4166 19.8829 31.7458 19.6761 31.1254C19.4692 30.5048 18.7983 30.1695 18.1781 30.3763L15 31.4357V27.3007L18.927 25.9917C19.5475 25.7849 19.8829 25.1142 19.6761 24.4938C19.4692 23.8733 18.7983 23.5381 18.1781 23.7447L15 24.8041V19.7366H20.5263V64.7369Z" fill="#0F1116"/>
<path d="M19.7269 7.03388L22.8848 8.18232C23.0186 8.23095 23.1551 8.25395 23.2896 8.25395C23.7734 8.25395 24.2277 7.95512 24.4026 7.47407C24.6261 6.85957 24.3091 6.18017 23.6945 5.95649L20.5365 4.80805C19.9223 4.58481 19.2427 4.90151 19.019 5.51616C18.7953 6.1311 19.1124 6.8105 19.7269 7.03388Z" fill="#0F1116"/>
</svg>
