<svg width="75" height="75" viewBox="0 0 75 75" fill="none" xmlns="http://www.w3.org/2000/svg">
<path d="M14.5161 55.6451H25.4032V42.3387H14.5161V55.6451ZM16.9355 44.758H22.9839V53.2258H16.9355V44.758Z" fill="#0F1116"/>
<path d="M49.5967 55.6451H60.4838V42.3387H49.5967V55.6451ZM52.016 44.758H58.0644V53.2258H52.016V44.758Z" fill="#0F1116"/>
<path d="M49.5969 30.2419H47.1775V20.5645H27.8227V30.2419H25.4033V32.6613H49.5969V30.2419ZM36.2904 30.2419H30.242V22.9839H36.2904V30.2419ZM44.7582 30.2419H38.7098V22.9839H44.7582V30.2419Z" fill="#0F1116"/>
<path d="M72.4621 60.4887C72.5431 60.0665 72.5807 59.6698 72.5807 59.2742C72.5807 55.2714 69.3254 52.0161 65.3226 52.0161V25.1819L70.1613 27.2286V18.5528L62.9032 15.4827V7.25806H65.3226V0H48.3871V7.25806H50.8065V10.3645L37.5 4.73468L4.83871 18.5528V27.2286L9.67742 25.1819V52.0161C5.6746 52.0161 2.41935 55.2714 2.41935 59.2742C2.41935 59.6698 2.45686 60.0665 2.5379 60.4887C0.916936 62.0782 0 64.2399 0 66.5323C0 69.8105 1.91976 72.7585 4.83871 74.1508V75H70.1613V74.1508C73.0802 72.7585 75 69.8105 75 66.5323C75 64.2399 74.0831 62.0782 72.4621 60.4887ZM50.8065 2.41935H62.9032V4.83871H50.8065V2.41935ZM60.4839 7.25806V14.4581L53.2258 11.3879V7.25806H60.4839ZM7.25806 23.5778V20.1569L37.5 7.3621L67.7419 20.1569V23.5778L37.5 10.7831L7.25806 23.5778ZM25.4032 37.5V39.9194H27.8226V62.9032H12.0968V24.1573L37.5 13.4105L62.9032 24.1573V62.9032H47.1774V39.9194H49.5968V37.5H25.4032ZM47.1774 65.3226V67.7419H27.8226V65.3226H47.1774ZM30.2419 62.9032V39.9194H44.7581V62.9032H30.2419ZM25.4032 65.3226V67.7419H9.67742V65.3226H25.4032ZM4.83871 71.3589C3.34597 70.2363 2.41935 68.4605 2.41935 66.5323C2.41935 64.7105 3.23105 63.0024 4.64637 61.846L5.26089 61.344L5.04556 60.5807C4.90403 60.0823 4.83871 59.6673 4.83871 59.2742C4.83871 56.6056 7.00887 54.4355 9.67742 54.4355V62.9032H7.25806V67.7419H4.83871V71.3589ZM22.9839 72.5807H7.25806V70.1613H22.9839V72.5807ZM49.5968 72.5807H25.4032V70.1613H49.5968V72.5807ZM49.5968 65.3226H65.3226V67.7419H49.5968V65.3226ZM67.7419 72.5807H52.0161V70.1613H67.7419V72.5807ZM70.1613 71.3589V67.7419H67.7419V62.9032H65.3226V54.4355C67.9911 54.4355 70.1613 56.6056 70.1613 59.2742C70.1613 59.6673 70.096 60.0823 69.9544 60.5807L69.7391 61.344L70.3536 61.846C71.769 63.0024 72.5807 64.7105 72.5807 66.5323C72.5807 68.4605 71.654 70.2363 70.1613 71.3589Z" fill="#0F1116"/>
</svg>
