<svg width="75" height="75" viewBox="0 0 75 75" fill="none" xmlns="http://www.w3.org/2000/svg">
<path d="M3.125 65.625H71.875V9.375H3.125V65.625ZM6.25 62.5V21.875H68.75V62.5H6.25ZM68.75 12.5V18.75H6.25V12.5H68.75ZM29.2344 41.125C30.2477 40.0035 30.9139 38.6121 31.1522 37.1195C31.3906 35.627 31.1909 34.0973 30.5773 32.716C29.9637 31.3346 28.9626 30.161 27.6953 29.3372C26.428 28.5135 24.949 28.075 23.4375 28.075C21.926 28.075 20.447 28.5135 19.1797 29.3372C17.9124 30.161 16.9113 31.3346 16.2977 32.716C15.6841 34.0973 15.4844 35.627 15.7228 37.1195C15.9611 38.6121 16.6273 40.0035 17.6406 41.125C16.1376 41.6701 14.8384 42.6639 13.9189 43.9718C12.9995 45.2798 12.5041 46.8387 12.5 48.4375V56.25H34.375V48.4375C34.3709 46.8387 33.8755 45.2798 32.9561 43.9718C32.0366 42.6639 30.7374 41.6701 29.2344 41.125ZM23.4375 31.25C24.3646 31.25 25.2709 31.5249 26.0417 32.04C26.8126 32.5551 27.4134 33.2871 27.7682 34.1437C28.123 35.0002 28.2158 35.9427 28.0349 36.852C27.8541 37.7613 27.4076 38.5965 26.7521 39.2521C26.0965 39.9076 25.2613 40.3541 24.352 40.5349C23.4427 40.7158 22.5002 40.623 21.6437 40.2682C20.7871 39.9134 20.0551 39.3126 19.54 38.5417C19.0249 37.7709 18.75 36.8646 18.75 35.9375C18.7517 34.6948 19.246 33.5035 20.1248 32.6248C21.0035 31.746 22.1948 31.2517 23.4375 31.25ZM31.25 53.125H15.625V48.4375C15.6267 47.1948 16.121 46.0035 16.9998 45.1248C17.8785 44.246 19.0698 43.7517 20.3125 43.75H26.5625C27.8052 43.7517 28.9965 44.246 29.8752 45.1248C30.754 46.0035 31.2483 47.1948 31.25 48.4375V53.125ZM40.625 31.25H62.5V34.375H40.625V31.25ZM40.625 40.625H62.5V43.75H40.625V40.625ZM43.75 50H59.375V53.125H43.75V50Z" fill="#0F1116"/>
</svg>
