<svg width="55" height="75" viewBox="0 0 55 75" fill="none" xmlns="http://www.w3.org/2000/svg">
<path d="M21.2499 17.5H33.7499C34.4412 17.5 34.9999 16.94 34.9999 16.2501C34.9999 15.5601 34.4412 15.0001 33.7499 15.0001H21.2499C20.56 15.0001 20 15.5601 20 16.2501C20 16.94 20.56 17.5 21.2499 17.5Z" fill="#0F1116"/>
<path d="M16.2499 22.5H38.7499C39.4412 22.5 39.9999 21.94 39.9999 21.2501C39.9999 20.5601 39.4412 20.0001 38.7499 20.0001H16.2499C15.56 20.0001 15 20.5601 15 21.2501C15 21.94 15.56 22.5 16.2499 22.5Z" fill="#0F1116"/>
<path d="M27.5 30C17.8501 30 10 37.85 10 47.5C10 57.1501 17.8501 65 27.5 65C37.15 65 45.0001 57.15 45.0001 47.4999C45.0001 37.8498 37.15 30 27.5 30ZM31.9926 42.2587C30.6713 42.4062 29.1925 42.5 27.5 42.5C25.8062 42.5 24.3275 42.4062 23.0075 42.2587C24.0213 37.2612 26.2937 34.2762 27.5 32.9849C28.7075 34.2788 30.9788 37.2625 31.9926 42.2587ZM32.35 44.7375C32.4388 45.6138 32.5 46.5237 32.5 47.5C32.5 48.4764 32.4388 49.385 32.3512 50.2601C30.9199 50.1013 29.3311 50.0001 27.52 50.0001C25.6937 50.0001 24.09 50.1026 22.65 50.2638C22.5612 49.3875 22.5 48.4775 22.5 47.5C22.5 46.5239 22.5612 45.6138 22.65 44.7375C24.0849 44.8975 25.6812 45 27.4999 45C29.3187 45 30.9139 44.8975 32.35 44.7375ZM24.4076 32.8238C23.0188 34.7162 21.3751 37.7001 20.5438 41.885C17.3251 41.2488 15.5425 40.2712 14.7188 39.6888C16.8413 36.23 20.3125 33.6863 24.4076 32.8238ZM12.5 47.5C12.5 45.5401 12.8888 43.6712 13.5763 41.9539C14.7688 42.7427 16.8388 43.7414 20.1763 44.3764C20.0726 45.3677 20 46.3964 20 47.5002C20 48.6051 20.0726 49.6352 20.1776 50.6265C16.8401 51.2628 14.7701 52.2627 13.5763 53.0502C12.89 51.3312 12.5 49.4612 12.5 47.5ZM14.7213 55.315C15.5538 54.7263 17.3414 53.7538 20.5438 53.1188C21.3763 57.3013 23.0201 60.2837 24.4076 62.1763C20.3138 61.3138 16.8438 58.7725 14.7213 55.315ZM23.0088 52.7438C24.3338 52.5951 25.8188 52.5 27.5201 52.5C29.2038 52.5 30.6776 52.5938 31.9926 52.7388C30.9788 57.7387 28.7063 60.7238 27.5 62.015C26.2937 60.7225 24.0213 57.7376 23.0088 52.7438ZM30.5938 62.1763C31.9813 60.2839 33.625 57.2975 34.4576 53.1113C37.6688 53.7438 39.4564 54.7163 40.2864 55.3012C38.165 58.7663 34.6913 61.3125 30.5938 62.1763ZM42.5 47.5C42.5 49.4563 42.1113 51.3212 41.4288 53.0363C40.23 52.2475 38.1588 51.2512 34.8238 50.62C34.9275 49.6301 35 48.6025 35 47.5C35 46.3963 34.9264 45.3675 34.8225 44.3776C38.155 43.7451 40.2288 42.7488 41.4275 41.9613C42.1113 43.6762 42.5 45.5424 42.5 47.5ZM34.4563 41.885C33.625 37.7013 31.9813 34.7162 30.5938 32.8238C34.6901 33.6863 38.1625 36.2325 40.2862 39.6951C39.4451 40.2863 37.6526 41.2538 34.4563 41.885Z" fill="#0F1116"/>
<path d="M48.75 4.99995H47.5V3.75C47.5 1.68252 45.8175 0 43.75 0H3.75C1.68252 0 0 1.68252 0 3.75V73.7501C0 74.44 0.56001 75 1.24995 75H48.75C52.2549 75 55 72.255 55 68.75V11.25C54.9999 7.80381 52.1962 4.99995 48.75 4.99995ZM52.5 68.75C52.5 70.8524 50.8538 72.5 48.75 72.5H2.4999V3.75C2.4999 3.06123 3.06108 2.50005 3.74985 2.50005H43.7499C44.4398 2.50005 44.9999 3.06123 44.9999 3.75V4.99995H6.2499C5.55996 4.99995 4.99995 5.55996 4.99995 6.2499C4.99995 6.93984 5.55996 7.49985 6.2499 7.49985H48.7499C50.7823 7.49985 52.4998 9.21738 52.4998 11.2499V68.75H52.5Z" fill="#0F1116"/>
</svg>
