<svg width="73" height="75" viewBox="0 0 73 75" fill="none" xmlns="http://www.w3.org/2000/svg">
<path d="M72.1722 0V59.0499H62.3305V55.7694H68.8916V3.28055H3.28055V55.7694H29.525V59.0499H0V0H72.1722ZM49.2083 6.56111H22.9639V9.84166H49.2083V6.56111ZM42.6472 16.4028V13.1222H29.525V16.4028H42.6472ZM19.6833 32.8055H6.56111V36.0861H19.6833V32.8055ZM19.6833 39.3666H6.56111V42.6472H19.6833V39.3666ZM6.56111 49.2083H13.1222V45.9277H6.56111V49.2083ZM52.4888 39.3666C52.4888 40.6643 52.104 41.9328 51.3831 43.0118C50.6622 44.0908 49.6375 44.9317 48.4386 45.4283C47.2397 45.9249 45.9205 46.0548 44.6477 45.8017C43.375 45.5485 42.2059 44.9236 41.2883 44.006C40.3708 43.0884 39.7459 41.9194 39.4927 40.6466C39.2395 39.3739 39.3695 38.0547 39.8661 36.8558C40.3627 35.6569 41.2036 34.6322 42.2826 33.9113C43.3616 33.1903 44.6301 32.8055 45.9277 32.8055C47.6673 32.8073 49.3352 33.4991 50.5652 34.7292C51.7953 35.9592 52.4871 37.6271 52.4888 39.3666ZM49.2083 39.3666C49.2083 38.7178 49.0159 38.0835 48.6554 37.5441C48.2949 37.0046 47.7826 36.5841 47.1832 36.3358C46.5837 36.0875 45.9241 36.0225 45.2877 36.1491C44.6514 36.2757 44.0668 36.5881 43.608 37.0469C43.1492 37.5057 42.8368 38.0903 42.7102 38.7266C42.5836 39.363 42.6486 40.0226 42.8969 40.622C43.1452 41.2215 43.5657 41.7338 44.1052 42.0943C44.6446 42.4548 45.2789 42.6472 45.9277 42.6472C46.7975 42.6463 47.6314 42.3004 48.2465 41.6854C48.8615 41.0703 49.2074 40.2364 49.2083 39.3666ZM49.2149 25.2832C49.3629 25.6996 49.5964 26.0803 49.9004 26.401C50.2045 26.7217 50.5722 26.9751 50.9801 27.1451C51.388 27.315 51.827 27.3977 52.2688 27.3878C52.7105 27.3779 53.1453 27.2756 53.5452 27.0875C54.1987 26.7822 54.9299 26.6835 55.641 26.8049C56.3521 26.9262 57.0092 27.2618 57.5245 27.7666C58.0346 28.2764 58.3747 28.9315 58.498 29.6422C58.6213 30.3528 58.5219 31.0841 58.2134 31.7361C58.0235 32.1362 57.9196 32.5717 57.9083 33.0145C57.8971 33.4573 57.9788 33.8976 58.1482 34.3068C58.3176 34.7161 58.5709 35.0853 58.8918 35.3906C59.2127 35.696 59.594 35.9306 60.0112 36.0795C60.6891 36.3217 61.2756 36.7675 61.6903 37.356C62.105 37.9445 62.3276 38.6467 62.3276 39.3666C62.3276 40.0865 62.105 40.7888 61.6903 41.3773C61.2756 41.9657 60.6891 42.4116 60.0112 42.6537C59.5938 42.8019 59.2122 43.036 58.891 43.3409C58.5698 43.6458 58.3161 44.0146 58.1464 44.4237C57.9766 44.8327 57.8946 45.2728 57.9056 45.7156C57.9166 46.1583 58.0203 46.5938 58.2101 46.9939C58.4417 47.4689 58.561 47.9909 58.5585 48.5194C58.5561 49.0478 58.4321 49.5687 58.1962 50.0416C57.9602 50.5144 57.6186 50.9267 57.1978 51.2464C56.777 51.5661 56.2882 51.7847 55.7694 51.8852V75L45.9277 66.674L36.0861 75V51.8852C35.5677 51.7845 35.0794 51.566 34.6589 51.2465C34.2385 50.927 33.8971 50.5151 33.6612 50.0427C33.4253 49.5702 33.3012 49.0498 33.2984 48.5218C33.2957 47.9937 33.4144 47.4721 33.6453 46.9972C33.8357 46.5969 33.9399 46.1611 33.9512 45.718C33.9625 45.2749 33.8806 44.8344 33.7108 44.4249C33.541 44.0155 33.2871 43.6463 32.9656 43.3412C32.6441 43.0361 32.2621 42.8019 31.8443 42.6537C31.1664 42.4116 30.5799 41.9657 30.1652 41.3773C29.7505 40.7888 29.5279 40.0865 29.5279 39.3666C29.5279 38.6467 29.7505 37.9445 30.1652 37.356C30.5799 36.7675 31.1664 36.3217 31.8443 36.0795C32.2618 35.931 32.6434 35.6965 32.9647 35.3914C33.2859 35.0862 33.5396 34.717 33.7093 34.3077C33.879 33.8984 33.961 33.4581 33.95 33.0151C33.939 32.5722 33.8352 32.1364 33.6453 31.7361C33.3364 31.0845 33.2365 30.3533 33.3592 29.6427C33.482 28.9321 33.8214 28.2768 34.331 27.7666C34.8464 27.263 35.5031 26.9285 36.2135 26.8078C36.9239 26.687 37.6542 26.7858 38.307 27.0908C38.7071 27.2788 39.1421 27.381 39.584 27.3907C40.026 27.4004 40.465 27.3174 40.873 27.1471C41.2809 26.9768 41.6486 26.723 41.9525 26.402C42.2564 26.081 42.4897 25.6999 42.6373 25.2832C42.8788 24.6041 43.3246 24.0165 43.9135 23.6009C44.5023 23.1853 45.2054 22.9622 45.9261 22.9622C46.6468 22.9622 47.3499 23.1853 47.9387 23.6009C48.5276 24.0165 48.9734 24.6041 49.2149 25.2832ZM52.4888 67.9304V51.3964C51.7903 51.3079 51.0827 51.4637 50.486 51.8374C49.8893 52.2111 49.4402 52.7797 49.2149 53.4468C48.9727 54.1247 48.5269 54.7112 47.9384 55.1259C47.3499 55.5406 46.6476 55.7632 45.9277 55.7632C45.2078 55.7632 44.5056 55.5406 43.9171 55.1259C43.3286 54.7112 42.8828 54.1247 42.6406 53.4468C42.4153 52.7797 41.9662 52.2111 41.3695 51.8374C40.7727 51.4637 40.0651 51.3079 39.3666 51.3964V67.9271L45.9277 62.3764L52.4888 67.9304ZM46.1246 52.3511C46.5709 51.0958 47.3948 50.0095 48.4832 49.2412C49.5717 48.4729 50.8712 48.0603 52.2034 48.0601C53.1899 48.0707 54.1628 48.291 55.0575 48.7064L55.2478 48.4078C54.86 47.5934 54.6476 46.7066 54.6243 45.8049C54.601 44.9032 54.7672 44.0066 55.1123 43.1732C55.4575 42.3398 55.9737 41.5881 56.6277 40.9669C57.2817 40.3456 58.0589 39.8686 58.9089 39.5667V39.1665C58.0595 38.8638 57.283 38.3863 56.6296 37.7649C55.9762 37.1435 55.4603 36.392 55.1153 35.5589C54.7703 34.7257 54.6039 33.8295 54.6267 32.9281C54.6495 32.0267 54.8611 31.14 55.2478 30.3254L54.9624 30.0499C54.1478 30.4365 53.2612 30.6479 52.3598 30.6704C51.4585 30.693 50.5624 30.5262 49.7295 30.1809C48.8966 29.8356 48.1454 29.3193 47.5244 28.6656C46.9035 28.0118 46.4266 27.2351 46.1246 26.3855H45.7309C45.4289 27.2351 44.952 28.0118 44.331 28.6656C43.7101 29.3193 42.9589 29.8356 42.126 30.1809C41.2931 30.5262 40.397 30.693 39.4957 30.6704C38.5943 30.6479 37.7077 30.4365 36.8931 30.0499L36.6077 30.3254C36.9944 31.14 37.206 32.0267 37.2288 32.9281C37.2516 33.8295 37.0851 34.7257 36.7402 35.5589C36.3952 36.392 35.8793 37.1435 35.2259 37.7649C34.5724 38.3863 33.796 38.8638 32.9466 39.1665V39.5667C33.7966 39.8686 34.5738 40.3456 35.2278 40.9669C35.8818 41.5881 36.398 42.3398 36.7431 43.1732C37.0882 44.0066 37.2545 44.9032 37.2312 45.8049C37.2079 46.7066 36.9954 47.5934 36.6077 48.4078L36.798 48.7031C37.693 48.2888 38.6659 48.0696 39.652 48.0601C40.9843 48.0603 42.2838 48.4729 43.3722 49.2412C44.4606 50.0095 45.2846 51.0958 45.7309 52.3511L45.9277 52.4888L46.1246 52.3511Z" fill="#0F1116"/>
</svg>
