<svg width="65" height="65" viewBox="0 0 65 65" fill="none" xmlns="http://www.w3.org/2000/svg">
<path d="M32.2 0C14.433 0 0 14.433 0 32.2C0 49.967 14.433 64.4 32.2 64.4C49.967 64.4 64.4 49.967 64.4 32.2C64.4 14.433 49.967 0 32.2 0ZM32.2 2.8C48.4538 2.8 61.6 15.9462 61.6 32.2C61.6 48.4538 48.4538 61.6 32.2 61.6C15.9462 61.6 2.8 48.4538 2.8 32.2C2.8 15.9462 15.9462 2.8 32.2 2.8ZM26.6 11.2V15.4H19.6V49H26.6V53.2H29.4V49H32.2V53.2H35V48.9863C38.2175 48.8953 45.9211 47.9935 45.9211 39.4789C45.9211 33.5989 40.8789 31.6405 38.7789 31.3605V31.2211C39.7589 30.9411 44.6605 29.4005 44.6605 23.6605C44.6605 16.5002 37.8789 15.556 35 15.4301V11.2H32.2V15.4H29.4V11.2H26.6ZM22.8211 18.0605H33.8789C38.9189 18.0605 41.4395 20.1605 41.4395 24.3605C41.4395 25.2005 41.3011 25.9 41.0211 26.6C40.7411 27.3 40.1811 27.8611 39.6211 28.4211C38.9211 28.9811 38.2195 29.3989 37.2395 29.6789C36.2595 29.9589 35.1389 30.1 33.8789 30.1H22.8211V18.0605ZM22.8211 32.9H33.8789C36.6789 32.9 38.9205 33.4589 40.4605 34.5789C42.0005 35.6989 42.7 37.3789 42.7 39.4789C42.7 40.8789 42.42 41.9995 42 42.8395C41.44 43.6795 40.8795 44.3795 40.0395 44.9395C39.1995 45.4995 38.3595 45.9205 37.2395 46.0605C36.2595 46.2005 35.1389 46.3395 33.8789 46.3395H22.8211V32.9Z" fill="#0F1116"/>
</svg>
