<svg width="20" height="20" viewBox="0 0 20 20" fill="none" xmlns="http://www.w3.org/2000/svg">
<g clip-path="url(#clip0_117_143)">
<path d="M18.8961 20C19.5056 20 19.9999 19.5057 19.9999 18.8962V1.1038C19.9999 0.494052 19.5056 0 18.8961 0H1.1038C0.494052 0 0 0.494127 0 1.1038V18.8961C0 19.5057 0.494052 19.9999 1.1038 19.9999L18.8961 20Z" fill="#485A96"/>
<path d="M13.7996 20.0001V12.255H16.3992L16.7884 9.23661H13.7995V7.30948C13.7995 6.43558 14.0421 5.84006 15.2954 5.84006L16.8937 5.83931V3.13967C16.6172 3.10296 15.6684 3.02075 14.5647 3.02075C12.2602 3.02075 10.6825 4.42737 10.6825 7.01064V9.23661H8.07611V12.255H10.6825V20L13.7996 20.0001Z" fill="white"/>
</g>
<defs>
<clipPath id="clip0_117_143">
<rect width="20" height="20" fill="white"/>
</clipPath>
</defs>
</svg>
