<svg width="20" height="20" viewBox="0 0 20 20" fill="none" xmlns="http://www.w3.org/2000/svg">
<g clip-path="url(#clip0_117_111)">
<path d="M10 0C4.47711 0 0 4.47711 0 10C0 15.5229 4.47711 20 10 20C15.5229 20 20 15.5229 20 10C20 4.47711 15.5229 0 10 0Z" fill="#40B3E0"/>
<path d="M14.8658 5.75251L13.0797 14.7577C13.0797 14.7577 12.83 15.3823 12.143 15.0825L8.02129 11.9225L6.52254 11.1981L3.99957 10.3488C3.99957 10.3488 3.61239 10.2114 3.57489 9.91165C3.53746 9.61189 4.01207 9.44954 4.01207 9.44954L14.0414 5.51517C14.0414 5.51517 14.8658 5.15298 14.8658 5.75251Z" fill="white"/>
<path d="M7.70452 14.6566C7.70452 14.6566 7.58421 14.6454 7.43429 14.1707C7.28444 13.6961 6.52257 11.1981 6.52257 11.1981L12.5801 7.35121C12.5801 7.35121 12.9299 7.13887 12.9174 7.35121C12.9174 7.35121 12.9798 7.38863 12.7925 7.56348C12.6051 7.7384 8.03382 11.8475 8.03382 11.8475" fill="#D2E5F1"/>
<path d="M9.60169 13.134L7.97137 14.6204C7.97137 14.6204 7.84395 14.7171 7.7045 14.6565L8.01669 11.8955" fill="#B5CFE4"/>
</g>
<defs>
<clipPath id="clip0_117_111">
<rect width="20" height="20" fill="white"/>
</clipPath>
</defs>
</svg>
