<svg width="20" height="20" viewBox="0 0 20 20" fill="none" xmlns="http://www.w3.org/2000/svg">
<path d="M10 2.08325C8.90043 2.08325 5.55418 2.08325 3.70418 3.77242C2.60251 4.86992 2.08334 6.45575 2.08334 8.74992V9.99992C2.08334 12.2941 2.60251 13.8799 3.71709 14.9899C4.27209 15.4962 5.02876 15.9008 5.95376 16.1803L6.25001 16.2695V18.4895C6.25001 18.7499 6.32543 18.7499 6.35043 18.7499C6.40168 18.7499 6.48376 18.7337 6.63959 18.5953C6.67709 18.5583 6.95209 18.2608 8.28959 16.7624L8.42459 16.6112L8.62668 16.6241C9.07459 16.652 9.53668 16.6666 10 16.6666C11.0996 16.6666 14.4458 16.6666 16.2958 14.977C17.3971 13.8795 17.9167 12.2937 17.9167 9.99992V8.74992C17.9167 6.45575 17.3975 4.86992 16.2829 3.75992C14.4458 2.08325 11.0996 2.08325 10 2.08325Z" fill="white"/>
<path d="M13.9379 12.0224C13.475 11.6324 13.2613 11.5145 12.6221 11.1308C12.3558 10.9712 11.95 10.8333 11.7371 10.8333C11.5917 10.8333 11.4175 10.9445 11.3108 11.0512C11.0375 11.3245 10.9479 11.6666 10.4688 11.6666C10 11.6666 9.18126 11.1895 8.59376 10.5728C7.9771 9.98534 7.50001 9.16659 7.50001 8.69784C7.50001 8.21867 7.83585 8.12284 8.10918 7.84909C8.21585 7.74284 8.33335 7.56867 8.33335 7.42325C8.33335 7.21034 8.19543 6.81075 8.03585 6.5445C7.6521 5.90492 7.5346 5.69117 7.14418 5.22867C7.0121 5.072 6.86168 5.00034 6.70418 4.99992C6.43793 4.9995 6.08835 5.13159 5.85168 5.30784C5.49585 5.57325 5.12376 5.9345 5.02418 6.3845C5.01085 6.44575 5.00293 6.50742 5.00043 6.56909C4.98126 7.03784 5.16543 7.51367 5.36418 7.91659C5.8321 8.86617 6.45126 9.78534 7.12501 10.6062C7.34043 10.8687 7.57501 11.1128 7.81793 11.3487C8.05376 11.5912 8.29793 11.8258 8.56043 12.0416C9.38126 12.7153 10.3004 13.3345 11.25 13.8024C11.6492 13.9991 12.1192 14.1799 12.5833 14.1666C12.6496 14.1645 12.7158 14.157 12.7821 14.1424C13.2321 14.0433 13.5933 13.6708 13.8588 13.3149C14.035 13.0783 14.1671 12.7291 14.1667 12.4624C14.1663 12.3049 14.0946 12.1545 13.9379 12.0224ZM14.1667 9.99992C13.9367 9.99992 13.75 9.81325 13.75 9.58325V9.16659C13.75 7.09909 12.0675 5.41659 10 5.41659C9.77001 5.41659 9.58335 5.22992 9.58335 4.99992C9.58335 4.76992 9.77001 4.58325 10 4.58325C12.5271 4.58325 14.5833 6.6395 14.5833 9.16659V9.58325C14.5833 9.81325 14.3967 9.99992 14.1667 9.99992ZM11.6075 9.16659C11.4225 9.16659 11.2533 9.04242 11.2046 8.85492C11.0904 8.417 10.7488 8.07492 10.3125 7.96242C10.0896 7.9045 9.95585 7.67742 10.0133 7.4545C10.0708 7.232 10.2975 7.09825 10.5213 7.15534C11.2496 7.34409 11.8204 7.9145 12.0108 8.6445C12.0688 8.86742 11.9354 9.0945 11.7129 9.15283C11.6775 9.162 11.6421 9.16659 11.6075 9.16659Z" fill="#7E57C2"/>
<path d="M12.9167 9.58338C12.6867 9.58338 12.5 9.39672 12.5 9.16672C12.5 7.83838 11.4608 6.74255 10.1342 6.67255C9.90416 6.66047 9.72791 6.46422 9.74 6.23463C9.75208 6.00463 9.95166 5.82797 10.1779 5.84047C11.9475 5.9338 13.3333 7.39505 13.3333 9.16672C13.3333 9.39672 13.1467 9.58338 12.9167 9.58338Z" fill="#7E57C2"/>
<path d="M10 1.66675C8.12501 1.66675 5.20335 1.83925 3.42335 3.46508C2.16501 4.718 1.66668 6.4755 1.66668 8.75008C1.66668 8.93841 1.66585 9.14841 1.66752 9.37508C1.66585 9.60133 1.66668 9.81133 1.66668 9.99966C1.66668 12.2742 2.16501 14.0317 3.42335 15.2847C4.10085 15.9034 4.94585 16.3105 5.83335 16.5788V18.4897C5.83335 19.1547 6.27043 19.1667 6.35043 19.1667H6.35418C6.56001 19.1659 6.73793 19.0651 6.91627 18.9067C6.98335 18.8472 7.75793 17.9838 8.60043 17.0397C9.1021 17.0717 9.57876 17.0834 9.9996 17.0834C11.8746 17.0834 14.7958 16.9105 16.5763 15.2847C17.8342 14.0322 18.3329 12.2742 18.3329 9.99966C18.3329 9.81133 18.3338 9.60133 18.3321 9.37466C18.3338 9.148 18.3329 8.93841 18.3329 8.74966C18.3329 6.47508 17.8346 4.71758 16.5763 3.46466C14.7963 1.83925 11.875 1.66675 10 1.66675ZM17.0833 9.85466V9.99966C17.0833 12.0438 16.6479 13.4367 15.7142 14.3797C14.0967 15.8334 11.0154 15.8334 9.9996 15.8334C9.69043 15.8334 9.18876 15.833 8.59668 15.7917C8.4321 15.9767 6.66668 17.9513 6.66668 17.9513V15.5084C5.79001 15.298 4.92377 14.953 4.28585 14.3801C3.3521 13.4367 2.91668 12.0438 2.91668 9.99966V9.85466C2.91668 9.70841 2.91626 9.5505 2.91751 9.36591C2.91626 9.19925 2.91627 9.04175 2.91668 8.89508V8.75008C2.91668 6.70591 3.3521 5.313 4.28585 4.37008C5.90293 2.91633 8.9846 2.91633 10 2.91633C11.0154 2.91633 14.0967 2.91633 15.7138 4.37008C16.6479 5.313 17.0829 6.70591 17.0829 8.75008V8.89508C17.0829 9.04133 17.0833 9.19925 17.0821 9.38383C17.0833 9.55091 17.0833 9.70841 17.0833 9.85466Z" fill="#7E57C2"/>
</svg>
