<svg width="20" height="20" viewBox="0 0 20 20" fill="none" xmlns="http://www.w3.org/2000/svg">
<g clip-path="url(#clip0_117_121)">
<path d="M5.34078 17.1293L5.66397 17.2909C7.01061 18.0989 8.51884 18.476 10.0271 18.476C14.7672 18.476 18.6456 14.5977 18.6456 9.85749C18.6456 7.59514 17.7298 5.38665 16.1139 3.77069C14.4979 2.15473 12.3433 1.23901 10.0271 1.23901C5.28692 1.23901 1.4086 5.11733 1.46247 9.91135C1.46247 11.5273 1.94726 13.0894 2.75524 14.4361L2.9707 14.7592L2.10885 17.9373L5.34078 17.1293Z" fill="#00E676"/>
<path d="M17.0296 2.90874C15.1982 1.02344 12.6665 0 10.081 0C4.58668 0 0.16971 4.47083 0.223576 9.91125C0.223576 11.6349 0.708365 13.3048 1.51635 14.813L0.115845 19.9302L5.3408 18.5836C6.79516 19.3916 8.41113 19.7686 10.0271 19.7686C15.4675 19.7686 19.8845 15.2978 19.8845 9.85738C19.8845 7.21797 18.861 4.74016 17.0296 2.90874ZM10.081 18.0988C8.62659 18.0988 7.17222 17.7217 5.93332 16.9676L5.61012 16.806L2.48593 17.614L3.29391 14.5437L3.07845 14.2205C0.708365 10.396 1.83954 5.33268 5.71785 2.9626C9.59617 0.59252 14.6057 1.72369 16.9757 5.60201C19.3458 9.48032 18.2146 14.4898 14.3363 16.8599C13.0974 17.6679 11.5892 18.0988 10.081 18.0988ZM14.8211 12.1197L14.2286 11.8504C14.2286 11.8504 13.3668 11.4733 12.8281 11.204C12.7742 11.204 12.7204 11.1502 12.6665 11.1502C12.5049 11.1502 12.3972 11.204 12.2894 11.2579C12.2894 11.2579 12.2356 11.3117 11.4815 12.1736C11.4276 12.2813 11.3199 12.3352 11.2121 12.3352H11.1583C11.1044 12.3352 10.9967 12.2813 10.9428 12.2275L10.6735 12.1197C10.081 11.8504 9.5423 11.5272 9.11138 11.0963C9.00365 10.9886 8.84205 10.8808 8.73432 10.7731C8.35726 10.396 7.9802 9.96511 7.71088 9.48032L7.65701 9.37259C7.60315 9.31873 7.60314 9.26486 7.54928 9.15713C7.54928 9.0494 7.54928 8.94167 7.60315 8.8878C7.60315 8.8878 7.81861 8.61847 7.9802 8.45688C8.08793 8.34915 8.1418 8.18755 8.24953 8.07982C8.35726 7.91822 8.41113 7.70276 8.35726 7.54116C8.3034 7.27184 7.65701 5.81747 7.49541 5.49428C7.38768 5.33268 7.27995 5.27882 7.11836 5.22495H6.95676C6.84903 5.22495 6.68743 5.22495 6.52584 5.22495C6.4181 5.22495 6.31037 5.27882 6.20264 5.27882L6.14878 5.33268C6.04105 5.38655 5.93332 5.49428 5.82558 5.54814C5.71785 5.65587 5.66399 5.7636 5.55626 5.87134C5.1792 6.35612 4.96374 6.94864 4.96374 7.54116C4.96374 7.97209 5.07147 8.40301 5.23306 8.78007L5.28693 8.94167C5.77172 9.96511 6.4181 10.8808 7.27995 11.6888L7.49541 11.9043C7.65701 12.0659 7.81861 12.1736 7.92634 12.3352C9.05751 13.3048 10.3503 14.005 11.8047 14.3821C11.9662 14.4359 12.1817 14.4359 12.3433 14.4898C12.5049 14.4898 12.7204 14.4898 12.882 14.4898C13.1513 14.4898 13.4745 14.3821 13.6899 14.2743C13.8515 14.1666 13.9593 14.1666 14.067 14.0589L14.1747 13.9512C14.2825 13.8434 14.3902 13.7896 14.4979 13.6818C14.6057 13.5741 14.7134 13.4664 14.7673 13.3586C14.875 13.1432 14.9288 12.8738 14.9827 12.6045C14.9827 12.4968 14.9827 12.3352 14.9827 12.2275C14.9827 12.2275 14.9288 12.1736 14.8211 12.1197Z" fill="white"/>
</g>
<defs>
<clipPath id="clip0_117_121">
<rect width="20" height="20" fill="white"/>
</clipPath>
</defs>
</svg>
